<?xml version="1.0" encoding="utf-8"?>
<!-- Generator: Adobe Illustrator 21.1.0, SVG Export Plug-In . SVG Version: 6.00 Build 0)  -->
<svg version="1.1" xmlns="http://www.w3.org/2000/svg" xmlns:xlink="http://www.w3.org/1999/xlink" x="0px" y="0px"
	 viewBox="0 0 180 420" style="enable-background:new 0 0 180 420;" xml:space="preserve">
<style type="text/css">
	.st0{fill:none;stroke:#666666;stroke-width:2;stroke-miterlimit:10;}
	.st1{fill:#666666;}
	.st2{fill:#FFFFFF;}
	.st3{display:none;}
	.st4{display:inline;}
	.st5{fill:none;stroke:#666666;stroke-width:0.5;stroke-linecap:round;stroke-miterlimit:10;}
	.st6{fill:none;}
</style>
<g id="FRONT">
	<g id="HIPS_XL">
	</g>
	<g id="HIPS_L">
	</g>
	<g id="HIPS_M">
	</g>
	<g id="HIPS_S">
	</g>
	<g id="HIPS_XS">
		<g>
			<g>
				<path class="st1" d="M107.6,383.9c-0.5-1.3-2.1-5.6-2-9.1c0.2-9,2.1-21.6,3.7-32.8c1.2-8.2,2.3-16,2.5-20.5
					c0.3-6.6-0.9-15.8-1.6-21.3c-0.1-1.1-0.3-2-0.3-2.8c-0.4-3.6-0.1-7.2,0.2-10.3c0.4-4.1,1.8-9.8,3.4-15.9
					c0.6-2.6,1.3-5.3,1.9-7.8c2.6-11.5,4.2-32.2,4.2-55.3c0-22-1-39.5-13.3-48.8l1.2-1.6c13,9.8,14,27.9,14,50.4
					c0,23.3-1.6,44.1-4.3,55.7c-0.6,2.6-1.3,5.2-1.9,7.8c-1.5,6-2.9,11.7-3.3,15.6c-0.3,3-0.6,6.5-0.2,9.9c0.1,0.8,0.2,1.7,0.3,2.8
					c0.7,5.6,1.9,14.9,1.6,21.6c-0.2,4.6-1.3,12.1-2.5,20.7c-1.6,11.1-3.5,23.8-3.7,32.6c-0.1,2.9,1.2,6.8,1.8,8.3L107.6,383.9z"/>
				<path class="st1" d="M96.8,396.1l-1.9-0.5c0.4-1.3,1.3-6.4,1.5-8.4c0.1-0.8-0.1-1.7-0.2-2.6c-0.1-0.6-0.2-1.2-0.2-1.7
					c0-0.8,0.2-1.9,0.4-3.2c0.3-1.6,0.6-3.5,0.5-4.8c-0.5-13-1.6-23.8-2.6-33.3c-0.5-4.5-0.9-8.7-1.2-12.6
					c-0.5-5.9,0.5-13.1,1.3-19.4c0.4-3.4,0.9-6.6,1-9c0.2-4.1,0.1-7.8-0.2-13.8c-0.1-2.3-0.4-5-0.8-8.2c-0.5-4.8-1.1-10.2-1.4-16
					c-0.3-5.7-0.5-14.1-0.7-22.2c-0.2-6.6-0.4-12.8-0.5-17c-0.1-3.4,0.3-6.4,0.7-8.4c-0.8,0.2-1.6,0.2-2.4,0.2v-2
					c1.1,0,1.9-0.1,3.4-0.5l1.4-0.4l-0.2,1.5c0,0.4-0.1,0.8-0.2,1.3c-0.3,2-0.8,4.9-0.7,8.2c0.2,4.2,0.3,10.4,0.5,17
					c0.2,8.1,0.5,16.5,0.7,22.2c0.3,5.7,0.8,11.1,1.3,15.9c0.3,3.2,0.6,6,0.8,8.3c0.4,6,0.4,9.8,0.2,14c-0.1,2.5-0.5,5.7-1,9.1
					c-0.8,6.2-1.7,13.3-1.3,19c0.3,3.8,0.7,8,1.2,12.5c1,9.6,2.1,20.4,2.6,33.5c0.1,1.5-0.3,3.5-0.5,5.2c-0.2,1.2-0.4,2.3-0.4,2.9
					c0,0.3,0.1,0.9,0.1,1.4c0.1,1,0.3,2.1,0.2,3C98.2,389.5,97.2,394.7,96.8,396.1z"/>
			</g>
			<g>
				<path class="st1" d="M72.5,384.4l-1.8-0.8c0.7-1.6,2.1-5.9,2.1-8.7c-0.2-8.8-2.1-21.5-3.7-32.6c-1.3-8.6-2.3-16.1-2.5-20.7
					c-0.3-6.8,0.9-16.1,1.6-21.6c0.1-1.1,0.3-2,0.3-2.8c0.4-3.4,0.1-6.9-0.2-9.9c-0.4-3.9-1.8-9.6-3.3-15.6
					c-0.6-2.6-1.3-5.3-1.9-7.8c-2.7-11.6-4.3-32.5-4.3-55.7c0-22.5,1-40.6,14-50.4l1.2,1.6c-12.3,9.3-13.3,26.8-13.3,48.8
					c0,23.1,1.6,43.8,4.2,55.3c0.6,2.5,1.2,5.2,1.9,7.8c1.5,6.1,2.9,11.8,3.4,15.9c0.3,3.1,0.6,6.7,0.2,10.3
					c-0.1,0.8-0.2,1.7-0.3,2.8c-0.7,5.5-1.9,14.7-1.6,21.3c0.2,4.5,1.3,12.3,2.5,20.5c1.6,11.2,3.5,23.9,3.7,32.8
					C74.8,378.2,73.1,383,72.5,384.4z"/>
				<path class="st1" d="M83.5,396.1c-0.4-1.4-1.4-6.7-1.6-8.7c-0.1-1,0-2.1,0.2-3c0.1-0.5,0.1-1.1,0.1-1.4c0-0.6-0.2-1.7-0.4-2.9
					c-0.3-1.7-0.6-3.7-0.5-5.2c0.5-13.1,1.6-23.9,2.6-33.5c0.5-4.5,0.9-8.7,1.2-12.5c0.4-5.7-0.5-12.8-1.3-19
					c-0.4-3.4-0.9-6.7-1-9.1c-0.2-4.2-0.1-8,0.2-14c0.1-2.3,0.4-5.1,0.8-8.3c0.5-4.8,1.1-10.2,1.3-15.9c0.3-5.7,0.5-14,0.7-22.2
					c0.2-6.6,0.4-12.8,0.5-17c0.1-3.3-0.3-6.3-0.7-8.2c-0.1-0.5-0.1-0.9-0.2-1.3l-0.2-1.5l1.4,0.4c1.4,0.4,2.3,0.5,3.4,0.5v2
					c-0.8,0-1.6-0.1-2.4-0.2c0.3,2,0.8,5,0.7,8.4c-0.2,4.2-0.3,10.4-0.5,17c-0.2,8.1-0.5,16.5-0.7,22.2c-0.3,5.8-0.8,11.2-1.4,16
					c-0.3,3.2-0.6,5.9-0.8,8.2c-0.4,6-0.4,9.7-0.2,13.8c0.1,2.4,0.5,5.6,1,9c0.8,6.3,1.8,13.5,1.3,19.4c-0.3,3.8-0.7,8.1-1.2,12.6
					c-1,9.5-2.1,20.3-2.6,33.3c-0.1,1.3,0.2,3.2,0.5,4.8c0.2,1.3,0.4,2.4,0.4,3.2c0,0.5-0.1,1.1-0.2,1.7c-0.1,0.9-0.2,1.8-0.2,2.6
					c0.2,1.9,1.1,7,1.5,8.4L83.5,396.1z"/>
			</g>
		</g>
		<g>
			<path class="st1" d="M101.2,200.7c-0.1-0.1-0.3,0-0.4,0.1h0c-1.5,3.3-4.1,6.5-5.9,10c-0.1,0.2-0.9,1.5-1.2,1.6l1.2-0.3
				c1.8-3.6,4.8-7.7,6.4-11.2C101.4,200.9,101.3,200.8,101.2,200.7z"/>
			<path class="st1" d="M85,211.7c0,0.1,0.4,0.5,0.4,0.5l1,0.2c-0.2-0.1-1.1-1.4-1.2-1.6c-1.8-3.5-4.4-6.8-5.9-10.1
				c-0.1-0.1-0.2-0.2-0.4-0.1c-0.1,0.1-0.2,0.2-0.1,0.4h0C80.4,204.7,83.3,208.1,85,211.7z"/>
		</g>
		<path class="st1" d="M85.4,395.4l-1.8,0.5c-0.1,0-0.1,0-0.1,0c0.2,0.7,0.5,2.3,0.5,3.6c0,0.6-0.1,1.1-0.2,1.5
			c-0.1,0.3-0.3,0.5-0.4,0.6h-1.1c0.5-0.6,0.7-1.2,0.7-1.8c0-1.2-1-2.3-2.7-2.3c-0.1,0-0.2,0-0.3,0c-0.9,0.1-1.5,0.3-1.9,0.6
			c0.2-0.6,0.5-1.2,0.5-1.2c0.1-0.1,0-0.3-0.1-0.4c-0.1-0.1-0.3,0-0.4,0.1l0,0c0,0-0.6,1.3-0.8,2.2c-0.4-0.3-0.9-0.5-1.4-0.5
			c-0.4,0-0.9,0.1-1.3,0.4c0.2-0.7,0.6-1.5,0.6-1.5c0.1-0.1,0-0.3-0.1-0.4c-0.1-0.1-0.3,0-0.4,0.1l0,0c0,0-0.6,1.3-0.8,2.2
			c-0.3-0.4-0.9-0.6-1.4-0.6c-0.4,0-0.8,0.1-1.2,0.4c0.2-0.6,0.6-1.3,0.6-1.3c0.1-0.1,0-0.3-0.1-0.4c-0.1-0.1-0.3,0-0.4,0.1l0,0
			c0,0-0.6,1.1-0.7,1.9c-0.3-0.3-0.8-0.4-1.2-0.4c-0.4,0-0.8,0.1-1.1,0.3c0.2-0.5,0.5-1,0.5-1c0.1-0.1,0-0.3-0.1-0.4
			c-0.1-0.1-0.3,0-0.4,0.1c0,0-0.5,0.8-0.7,1.6c-0.3-0.2-0.7-0.3-1.1-0.3c-0.7,0-1.5,0.4-1.6,1.3c0,0.2,0,0.3,0,0.5
			c0,0.3,0.1,0.6,0.2,0.8h-0.7c0-0.1,0-0.2-0.1-0.4c0-0.4,0.2-0.9,0.2-1c0,0,0.5-0.6,1.1-1.2c0.6-0.6,1.2-1.4,1.7-1.9l0.1-0.1
			c1.1-1.7,2.1-4,3.3-6.5c0,0,0.1,0,0.1-0.1c0.7-1.3,1.7-2.2,2.5-2.8c0.8-0.6,1.5-0.9,1.5-0.9c0.1-0.1,0.2-0.2,0.2-0.4
			c-0.1-0.1-0.2-0.2-0.4-0.2h0c0,0-1.3,0.5-2.6,1.7c0.5-0.9,0.7-1.7,0.7-2.4c0-0.4,0-0.8,0-1c0-0.2,0-0.5,0.1-0.8h-2.2
			c-0.1,0.3-0.1,0.6-0.1,0.8c0,0.5,0,0.8,0,1c0,0.4,0,0.7-0.4,1.4c-1.8,3.4-3.2,6.7-4.5,8.8c-0.5,0.5-1.1,1.2-1.6,1.8
			c-0.6,0.6-1,1.1-1.2,1.3c-0.4,0.6-0.7,1.3-0.7,2.2c0,0.8,0.3,1.8,1.3,2.3c0.2,0.1,0.3,0.1,0.5,0.1c2,0,17.3,0,19.6,0
			c0.1,0,0.3,0,0.4-0.1c0.8-0.4,1.4-1.1,1.7-1.8c0.3-0.7,0.4-1.5,0.4-2.3C86,398,85.6,396.2,85.4,395.4z M67.2,401.6h-1.6
			c-0.2-0.1-0.3-0.4-0.3-0.8c0-0.1,0-0.3,0-0.4c0.1-0.5,0.5-0.8,1-0.8c0.5,0,0.9,0.2,0.9,0.5h0c0,0.3,0.1,0.5,0.1,0.7
			C67.4,401.2,67.4,401.4,67.2,401.6z M70.2,401.6h-1.8c-0.2-0.2-0.3-0.4-0.3-0.9c0-0.1,0-0.3,0-0.4c0.1-0.6,0.6-0.9,1.2-0.9
			c0.5,0,1,0.3,1,0.6h0c0.1,0.3,0.1,0.6,0.1,0.8C70.4,401.1,70.3,401.4,70.2,401.6z M73.4,401.6h-2.1c-0.2-0.2-0.2-0.5-0.3-0.9
			c0-0.1,0-0.3,0-0.5c0.1-0.7,0.7-1,1.3-1c0.6,0,1.1,0.3,1.1,0.7c0.1,0.3,0.1,0.6,0.1,0.9C73.6,401.1,73.5,401.4,73.4,401.6z
			 M74,401.6C74,401.6,74,401.5,74,401.6C74.1,401.5,74.1,401.6,74,401.6L74,401.6z M76.8,401.6h-2.1c-0.3-0.2-0.3-0.5-0.4-1.1
			c0-0.2,0-0.3,0-0.5c0.1-0.7,0.7-1,1.4-1.1c0.6,0,1.1,0.3,1.2,0.7c0.1,0.3,0.1,0.7,0.1,0.9C77.1,401.1,77,401.4,76.8,401.6z
			 M77.5,401.6c0,0,0-0.1,0.1-0.2c0,0.1,0.1,0.1,0.1,0.2H77.5z M81.4,401.6h-2.8c0,0-0.1,0-0.1-0.1c-0.1,0-0.3-0.2-0.5-0.5
			c-0.2-0.3-0.3-0.7-0.3-1.1c0-0.8,0.4-1.6,2.3-1.8c0.1,0,0.2,0,0.3,0c1.4,0,2.1,0.8,2.1,1.7C82.4,400.4,82.1,401,81.4,401.6z"/>
		<path class="st1" d="M94.3,399.5c0,0.8,0.1,1.5,0.4,2.3c0.3,0.7,0.9,1.4,1.7,1.8c0.1,0.1,0.3,0.1,0.4,0.1c2.2,0,17.5,0,19.6,0
			c0.2,0,0.3,0,0.5-0.1c1-0.5,1.3-1.6,1.3-2.3c0-0.9-0.3-1.6-0.7-2.2c-0.2-0.2-0.6-0.7-1.2-1.3c-0.5-0.6-1.2-1.3-1.6-1.8
			c-1.3-2.1-2.7-5.4-4.5-8.8c-0.4-0.8-0.4-1.1-0.4-1.4c0-0.3,0-0.6,0-1c0-0.5-0.2-1.3-0.4-1.6l-1.8,0.8c0.1,0.4,0.1,0.6,0.1,0.8
			c0,0.3,0,0.6,0,1c0,0.6,0.2,1.4,0.7,2.4c-1.3-1.2-2.5-1.7-2.6-1.7h0c-0.1-0.1-0.3,0-0.4,0.2c-0.1,0.1,0,0.3,0.2,0.4
			c0,0,0.7,0.3,1.5,0.9c0.8,0.6,1.8,1.5,2.5,2.8c0,0,0,0,0.1,0.1c1.2,2.5,2.2,4.8,3.3,6.5l0.1,0.1c0.5,0.5,1.1,1.3,1.7,1.9
			c0.5,0.6,1,1.2,1.1,1.2c0,0,0.3,0.6,0.2,1c0,0.2,0,0.3-0.1,0.4h-0.7c0.1-0.2,0.2-0.5,0.2-0.8c0-0.1,0-0.3,0-0.5
			c-0.1-0.9-0.9-1.3-1.6-1.3c-0.4,0-0.8,0.1-1.1,0.3c-0.2-0.7-0.7-1.5-0.7-1.6c-0.1-0.1-0.2-0.2-0.4-0.1c-0.1,0.1-0.2,0.2-0.1,0.4
			c0,0,0.3,0.5,0.5,1c-0.3-0.2-0.7-0.3-1.1-0.3c-0.4,0-0.9,0.1-1.2,0.4c-0.2-0.8-0.7-1.9-0.7-1.9l0,0c-0.1-0.1-0.2-0.2-0.4-0.1
			c-0.1,0.1-0.2,0.2-0.1,0.4c0,0,0.3,0.7,0.6,1.3c-0.3-0.2-0.8-0.4-1.2-0.4c-0.5,0-1.1,0.2-1.4,0.6c-0.2-0.9-0.8-2.1-0.8-2.2l0,0
			c-0.1-0.1-0.2-0.2-0.4-0.1c-0.1,0.1-0.2,0.2-0.1,0.4c0,0,0.3,0.8,0.6,1.5c-0.4-0.3-0.8-0.4-1.3-0.4c-0.5,0-1,0.2-1.4,0.5
			c-0.2-0.9-0.8-2.2-0.8-2.2l0,0c-0.1-0.1-0.2-0.2-0.4-0.1c-0.1,0.1-0.2,0.2-0.1,0.4c0,0,0.3,0.6,0.5,1.2c-0.5-0.3-1.1-0.6-1.9-0.6
			c-0.1,0-0.2,0-0.3,0c-1.7,0-2.7,1-2.7,2.3c0,0.6,0.3,1.2,0.7,1.8h-1.1c-0.2-0.1-0.3-0.3-0.4-0.6c-0.2-0.4-0.2-0.9-0.2-1.5
			c0-1.2,0.3-2.8,0.5-3.6c0-0.1-0.1,0-0.1,0l-1.8-0.5C94.7,396.2,94.3,398,94.3,399.5z M112.9,400.8c0-0.2,0-0.5,0.1-0.7h0
			c0-0.3,0.4-0.5,0.9-0.5c0.5,0,1,0.3,1,0.8c0,0.1,0,0.3,0,0.4c0,0.4-0.1,0.7-0.3,0.8h-1.6C113,401.4,112.9,401.2,112.9,400.8z
			 M109.9,400.8c0-0.2,0-0.5,0.1-0.8h0c0.1-0.3,0.5-0.6,1-0.6c0.6,0,1.1,0.3,1.2,0.9c0,0.2,0,0.3,0,0.4c0,0.5-0.1,0.7-0.3,0.9h-1.8
			C110,401.4,110,401.1,109.9,400.8z M106.7,400.7c0-0.3,0-0.6,0.1-0.9c0.1-0.4,0.6-0.7,1.1-0.7c0.6,0,1.2,0.3,1.3,1
			c0,0.2,0,0.3,0,0.5c0,0.4-0.1,0.7-0.3,0.9h-2.1C106.8,401.4,106.8,401.1,106.7,400.7z M106.3,401.6
			C106.3,401.6,106.3,401.5,106.3,401.6C106.3,401.5,106.3,401.6,106.3,401.6L106.3,401.6z M103.2,400.6c0-0.3,0-0.6,0.1-0.9
			c0.1-0.4,0.6-0.7,1.2-0.7c0.7,0,1.3,0.3,1.4,1.1c0,0.2,0,0.4,0,0.5c0,0.5-0.1,0.9-0.4,1.1h-2.1
			C103.3,401.4,103.3,401.1,103.2,400.6z M102.7,401.6c0,0,0.1-0.1,0.1-0.2c0,0.1,0,0.1,0.1,0.2H102.7z M98,399.8
			c0-0.9,0.7-1.7,2.1-1.7c0.1,0,0.2,0,0.3,0c1.9,0.2,2.3,1,2.3,1.8c0,0.4-0.1,0.8-0.3,1.1c-0.2,0.3-0.4,0.5-0.5,0.5
			c0,0-0.1,0-0.1,0.1H99C98.3,401,98,400.4,98,399.8z"/>
	</g>
	<g id="STOMACH-XS">
	</g>
	<g id="TAPAS_SOMACH-S">
	</g>
	<g id="STOMACH-S_1_">
	</g>
	<g id="TAPAS_STOMACH-M">
	</g>
	<g id="STOMACH-M">
	</g>
	<g id="TAPAS_STOMCH-L">
	</g>
	<g id="STOMACH-L">
	</g>
	<g id="TAPAS_STOMACH_XL">
	</g>
	<g id="STOMACH-XL">
	</g>
	<g id="TAPAS_HIPS-XL">
	</g>
	<g id="TAPAS_HIPS_L">
	</g>
	<g id="TAPAS_HIPS_-_M">
	</g>
	<g id="TAPAS_HIPS_-_S">
	</g>
	<g id="TAPAS_HIPS_-_XS">
	</g>
</g>
<g id="SIDE" class="st3">
	<g id="HIPS_M_1_" class="st4">
	</g>
	<g id="HIPS_S_1_" class="st4">
	</g>
	<g id="HIPS_XS_1_" class="st4">
	</g>
	<g id="STOMACH_XS" class="st4">
	</g>
	<g id="STOMACH_S" class="st4">
	</g>
	<g id="STOMACH_M" class="st4">
	</g>
	<g id="STOMACH_L" class="st4">
	</g>
	<g id="STOMACH_XL" class="st4">
	</g>
	<g id="TAPA_CHEST_XL" class="st4">
	</g>
	<g id="CHEST_XL" class="st4">
	</g>
	<g id="TAPA_CHEST_L" class="st4">
	</g>
	<g id="CHEST_L" class="st4">
	</g>
	<g id="TAPA_CHEST_M" class="st4">
	</g>
	<g id="CHEST_M" class="st4">
	</g>
	<g id="CHEST_S" class="st4">
	</g>
	<g id="CHEST_XS" class="st4">
	</g>
</g>
</svg>
