<?xml version="1.0" encoding="utf-8"?>
<!-- Generator: Adobe Illustrator 21.1.0, SVG Export Plug-In . SVG Version: 6.00 Build 0)  -->
<svg version="1.1" xmlns="http://www.w3.org/2000/svg" xmlns:xlink="http://www.w3.org/1999/xlink" x="0px" y="0px"
	 viewBox="0 0 180 420" style="enable-background:new 0 0 180 420;" xml:space="preserve">
<style type="text/css">
	.st0{fill:none;stroke:#666666;stroke-width:2;stroke-miterlimit:10;}
	.st1{fill:#666666;}
	.st2{fill:#FFFFFF;}
	.st3{display:none;}
	.st4{display:inline;}
	.st5{fill:none;stroke:#666666;stroke-width:0.5;stroke-linecap:round;stroke-miterlimit:10;}
	.st6{fill:none;}
</style>
<g id="FRONT">
	<g id="HIPS_XL">
		<g>
			<g>
				<g>
					<path class="st1" d="M84.3,395.9c-0.4-1.4-1.4-6.7-1.6-8.7c-0.1-1,0-2.1,0.2-3c0.1-0.5,0.1-1.1,0.1-1.4c0-0.6-0.2-1.7-0.4-2.9
						c-0.3-1.7-0.6-3.7-0.5-5.2c0.5-11.8,2.1-22.1,3.5-31.1c0.9-5.8,1.7-10.8,2.1-15.4c0.4-5.3-1-11.7-2.3-17.3
						c-0.9-3.8-1.7-7.5-1.8-10.3c-0.2-4.2-0.1-8,0.2-14c0.2-2.5,0.9-5.6,1.7-9.1c1.1-4.7,2.4-9.9,2.6-15.3c0.3-6.5,1.1-28.3,0-38.5
						c-0.3-2.6-0.8-5.1-1.2-7.1c-0.2-1.2-0.5-2.1-0.6-2.9l-0.2-1.5l1.4,0.4c1.4,0.4,2.3,0.5,3.4,0.5v2c-0.8,0-1.5-0.1-2.4-0.2
						c0.1,0.4,0.2,0.8,0.3,1.3c0.4,2,1,4.6,1.3,7.3c1.1,10.3,0.3,32.3,0,38.8c-0.3,5.6-1.5,11-2.7,15.7c-0.8,3.5-1.5,6.4-1.7,8.8
						c-0.4,6-0.4,9.7-0.2,13.8c0.1,2.6,0.9,6.2,1.8,10c1.3,5.8,2.8,12.4,2.3,17.9c-0.4,4.6-1.2,9.7-2.1,15.5c-1.4,9-3,19.1-3.5,30.9
						c-0.1,1.3,0.2,3.2,0.5,4.8c0.2,1.3,0.4,2.4,0.4,3.2c0,0.5-0.1,1.1-0.2,1.7c-0.1,0.9-0.2,1.8-0.2,2.6c0.2,1.9,1.1,7,1.5,8.4
						L84.3,395.9z"/>
					<path class="st1" d="M73.5,384.2l-2-0.2c0-0.5,0.2-1,0.4-1.6c0.5-1.1,1.7-4.7,1.6-7.7c-0.2-7-2.5-14.5-4.9-22.4
						c-3-9.8-6.1-20-6.1-31.2c0-5.8,1.2-13.3,2-18.7c0.3-2.1,0.6-3.9,0.7-5.1c0.4-3.1,0.4-6.1,0-9.6c-0.3-3.3-1.5-5.7-3-8.8
						c-1-2-2.1-4.3-3.2-7.3c-0.7-2-2-4.5-3.4-7.4C50,252.5,40.5,233,45.4,208.4c5.3-26.6,20.7-46.5,27.4-50.8l1.1,1.7
						c-5.6,3.6-21.3,23-26.5,49.6c-4.8,24,4.2,42.4,10.1,54.5c1.4,2.9,2.7,5.5,3.4,7.6c1.1,2.9,2.2,5.2,3.1,7.1
						c1.5,3.1,2.8,5.8,3.2,9.5c0.4,3.6,0.4,6.8,0,10c-0.2,1.3-0.4,3.1-0.8,5.2c-0.8,5.4-2,12.7-2,18.4c0,10.9,3.1,20.9,6,30.6
						c2.5,8,4.8,15.6,5,22.9c0.1,3.3-1.1,7-1.8,8.6C73.6,383.5,73.5,383.8,73.5,384.2z"/>
				</g>
				<g>
					<path class="st1" d="M85.9,211.7c0,0.1,0.4,0.5,0.4,0.5l1,0.2c-0.2-0.1-1.1-1.4-1.2-1.6c-1.8-3.5-4.4-6.8-5.9-10.1
						c-0.1-0.1-0.2-0.2-0.4-0.1c-0.1,0.1-0.2,0.2-0.1,0.4h0C81.3,204.7,84.1,208.1,85.9,211.7z"/>
				</g>
				<path class="st1" d="M86.2,395.4l-1.8,0.5c-0.1,0-0.1,0-0.1,0c0.2,0.7,0.5,2.3,0.5,3.6c0,0.6-0.1,1.1-0.2,1.5
					c-0.1,0.3-0.3,0.5-0.4,0.6H83c0.5-0.6,0.7-1.2,0.7-1.8c0-1.2-1-2.3-2.7-2.3c-0.1,0-0.2,0-0.3,0c-0.9,0.1-1.5,0.3-1.9,0.6
					c0.2-0.6,0.5-1.2,0.5-1.2c0.1-0.1,0-0.3-0.1-0.4c-0.1-0.1-0.3,0-0.4,0.1l0,0c0,0-0.6,1.3-0.8,2.2c-0.4-0.3-0.9-0.5-1.4-0.5
					c-0.4,0-0.9,0.1-1.3,0.4c0.2-0.7,0.6-1.5,0.6-1.5c0.1-0.1,0-0.3-0.1-0.4c-0.1-0.1-0.3,0-0.4,0.1l0,0c0,0-0.6,1.3-0.8,2.2
					c-0.3-0.4-0.9-0.6-1.4-0.6c-0.4,0-0.8,0.1-1.2,0.4c0.2-0.6,0.6-1.3,0.6-1.3c0.1-0.1,0-0.3-0.1-0.4c-0.1-0.1-0.3,0-0.4,0.1l0,0
					c0,0-0.6,1.1-0.7,1.9c-0.3-0.3-0.8-0.4-1.2-0.4c-0.4,0-0.8,0.1-1.1,0.3c0.2-0.5,0.5-1,0.5-1c0.1-0.1,0-0.3-0.1-0.4
					c-0.1-0.1-0.3,0-0.4,0.1c0,0-0.5,0.8-0.7,1.6c-0.3-0.2-0.7-0.3-1.1-0.3c-0.7,0-1.5,0.4-1.6,1.3c0,0.2,0,0.3,0,0.5
					c0,0.3,0.1,0.6,0.2,0.8h-0.7c0-0.1,0-0.2-0.1-0.4c0-0.4,0.2-0.9,0.2-1c0,0,0.5-0.6,1.1-1.2c0.6-0.6,1.2-1.4,1.7-1.9l0.1-0.1
					c1.1-1.7,2.1-4,3.3-6.5c0,0,0.1,0,0.1-0.1c0.7-1.3,1.7-2.2,2.5-2.8c0.8-0.6,1.5-0.9,1.5-0.9c0.1-0.1,0.2-0.2,0.2-0.4
					c-0.1-0.1-0.2-0.2-0.4-0.2h0c0,0-1.3,0.5-2.6,1.7c0.5-0.9,0.7-1.7,0.7-2.4c0-0.4,0-0.8,0-1c0-0.2,0-0.5,0.1-0.8h-2.2
					c-0.1,0.3-0.1,0.6-0.1,0.8c0,0.5,0,0.8,0,1c0,0.4,0,0.7-0.4,1.4c-1.8,3.4-3.2,6.7-4.5,8.8c-0.5,0.5-1.1,1.2-1.6,1.8
					c-0.6,0.6-1,1.1-1.2,1.3c-0.4,0.6-0.7,1.3-0.7,2.2c0,0.8,0.3,1.8,1.3,2.3c0.2,0.1,0.3,0.1,0.5,0.1c2,0,17.3,0,19.6,0
					c0.1,0,0.3,0,0.4-0.1c0.8-0.4,1.4-1.1,1.7-1.8c0.3-0.7,0.4-1.5,0.4-2.3C86.9,398,86.5,396.2,86.2,395.4z M68.1,401.6h-1.6
					c-0.2-0.1-0.3-0.4-0.3-0.8c0-0.1,0-0.3,0-0.4c0.1-0.5,0.5-0.8,1-0.8c0.5,0,0.9,0.2,0.9,0.5h0c0,0.3,0.1,0.5,0.1,0.7
					C68.3,401.2,68.2,401.4,68.1,401.6z M71,401.6h-1.8c-0.2-0.2-0.3-0.4-0.3-0.9c0-0.1,0-0.3,0-0.4c0.1-0.6,0.6-0.9,1.2-0.9
					c0.5,0,1,0.3,1,0.6h0c0.1,0.3,0.1,0.6,0.1,0.8C71.2,401.1,71.2,401.4,71,401.6z M74.3,401.6h-2.1c-0.2-0.2-0.2-0.5-0.3-0.9
					c0-0.1,0-0.3,0-0.5c0.1-0.7,0.7-1,1.3-1c0.6,0,1.1,0.3,1.1,0.7c0.1,0.3,0.1,0.6,0.1,0.9C74.4,401.1,74.4,401.4,74.3,401.6z
					 M74.9,401.6C74.9,401.6,74.9,401.5,74.9,401.6C74.9,401.5,74.9,401.6,74.9,401.6L74.9,401.6z M77.7,401.6h-2.1
					c-0.3-0.2-0.3-0.5-0.4-1.1c0-0.2,0-0.3,0-0.5c0.1-0.7,0.7-1,1.4-1.1c0.6,0,1.1,0.3,1.2,0.7c0.1,0.3,0.1,0.7,0.1,0.9
					C77.9,401.1,77.9,401.4,77.7,401.6z M78.3,401.6c0,0,0-0.1,0.1-0.2c0,0.1,0.1,0.1,0.1,0.2H78.3z M82.2,401.6h-2.8
					c0,0-0.1,0-0.1-0.1c-0.1,0-0.3-0.2-0.5-0.5c-0.2-0.3-0.3-0.7-0.3-1.1c0-0.8,0.4-1.6,2.3-1.8c0.1,0,0.2,0,0.3,0
					c1.4,0,2.1,0.8,2.1,1.7C83.2,400.4,82.9,401,82.2,401.6z"/>
			</g>
			<g>
				<g>
					<path class="st1" d="M97.7,395.9l-1.9-0.5c0.4-1.3,1.3-6.4,1.5-8.4c0.1-0.8-0.1-1.7-0.2-2.6c-0.1-0.6-0.2-1.2-0.2-1.7
						c0-0.8,0.2-1.9,0.4-3.2c0.3-1.6,0.6-3.5,0.5-4.8c-0.5-11.7-2.1-21.9-3.5-30.9c-0.9-5.8-1.7-10.9-2.1-15.5
						c-0.4-5.6,1-12.1,2.3-17.9c0.8-3.8,1.6-7.3,1.8-10c0.2-4.1,0.1-7.8-0.2-13.8c-0.1-2.4-0.9-5.4-1.7-8.8
						c-1.1-4.7-2.4-10.1-2.7-15.7c-0.3-6.5-1.1-28.5,0-38.8c0.3-2.7,0.8-5.2,1.3-7.3c0.1-0.5,0.2-0.9,0.3-1.3
						c-0.8,0.2-1.5,0.2-2.4,0.2v-2c1.1,0,1.9-0.1,3.4-0.5l1.4-0.4l-0.2,1.5c-0.1,0.7-0.3,1.7-0.6,2.9c-0.4,2-1,4.5-1.2,7.1
						c-1.1,10.2-0.3,32,0,38.5c0.2,5.4,1.5,10.7,2.6,15.3c0.8,3.5,1.6,6.6,1.7,9.1c0.4,6.1,0.4,9.9,0.2,14
						c-0.1,2.8-0.9,6.4-1.8,10.3c-1.3,5.7-2.7,12.1-2.3,17.3c0.3,4.5,1.1,9.6,2.1,15.4c1.4,9,3,19.3,3.5,31.1
						c0.1,1.5-0.3,3.5-0.5,5.2c-0.2,1.2-0.4,2.3-0.4,2.9c0,0.3,0.1,0.9,0.1,1.4c0.1,1,0.3,2.1,0.2,3
						C99.1,389.3,98.1,394.5,97.7,395.9z"/>
					<path class="st1" d="M108.5,384.2c0-0.3-0.1-0.6-0.3-1c-0.7-1.5-1.9-5.3-1.8-8.6c0.2-7.2,2.5-14.9,5-22.9c3-9.7,6-19.7,6-30.6
						c0-5.7-1.1-13-2-18.4c-0.3-2.1-0.6-3.9-0.8-5.2c-0.4-3.2-0.4-6.4,0-10c0.4-3.7,1.7-6.4,3.2-9.5c1-2,2.1-4.2,3.1-7.1
						c0.8-2.1,2-4.6,3.4-7.6c5.9-12.2,14.9-30.5,10.1-54.5c-5.4-27.2-22.7-46-28.1-49.5l1.1-1.7c5.5,3.6,23.4,23,29,50.8
						c4.9,24.7-4.6,44.2-10.3,55.8c-1.4,2.9-2.6,5.4-3.4,7.4c-1.1,3-2.2,5.3-3.2,7.3c-1.5,3-2.7,5.5-3,8.8c-0.4,3.5-0.4,6.5,0,9.6
						c0.1,1.3,0.4,3.1,0.7,5.1c0.8,5.4,2,12.9,2,18.7c0,11.2-3.1,21.4-6.1,31.2c-2.4,7.9-4.7,15.4-4.9,22.4c-0.1,3,1.1,6.6,1.6,7.7
						c0.2,0.6,0.4,1.1,0.4,1.6L108.5,384.2z"/>
				</g>
				<g>
					<path class="st1" d="M96.1,211.7c0,0.1-0.4,0.5-0.4,0.5l-1,0.2c0.2-0.1,1.1-1.4,1.2-1.6c1.8-3.5,4.4-6.8,5.9-10.1
						c0.1-0.1,0.2-0.2,0.4-0.1c0.1,0.1,0.2,0.2,0.1,0.4h0C100.7,204.7,97.9,208.1,96.1,211.7z"/>
				</g>
				<path class="st1" d="M95.1,399.5c0,0.8,0.1,1.5,0.4,2.3c0.3,0.7,0.9,1.4,1.7,1.8c0.1,0.1,0.3,0.1,0.4,0.1c2.2,0,17.5,0,19.6,0
					c0.2,0,0.3,0,0.5-0.1c1-0.5,1.3-1.6,1.3-2.3c0-0.9-0.3-1.6-0.7-2.2c-0.2-0.2-0.6-0.7-1.2-1.3c-0.5-0.6-1.2-1.3-1.6-1.8
					c-1.3-2.1-2.7-5.4-4.5-8.8c-0.4-0.8-0.4-1.1-0.4-1.4c0-0.3,0-0.6,0-1c0-0.3,0-0.5-0.1-0.8h-2.2c0.1,0.4,0.1,0.6,0.1,0.8
					c0,0.3,0,0.6,0,1c0,0.6,0.2,1.4,0.7,2.4c-1.3-1.2-2.5-1.7-2.6-1.7h0c-0.1-0.1-0.3,0-0.4,0.2c-0.1,0.1,0,0.3,0.2,0.4
					c0,0,0.7,0.3,1.5,0.9c0.8,0.6,1.8,1.5,2.5,2.8c0,0,0,0,0.1,0.1c1.2,2.5,2.2,4.8,3.3,6.5l0.1,0.1c0.5,0.5,1.1,1.3,1.7,1.9
					c0.5,0.6,1,1.2,1.1,1.2c0,0,0.3,0.6,0.2,1c0,0.2,0,0.3-0.1,0.4h-0.7c0.1-0.2,0.2-0.5,0.2-0.8c0-0.1,0-0.3,0-0.5
					c-0.1-0.9-0.9-1.3-1.6-1.3c-0.4,0-0.8,0.1-1.1,0.3c-0.2-0.7-0.7-1.5-0.7-1.6c-0.1-0.1-0.2-0.2-0.4-0.1c-0.1,0.1-0.2,0.2-0.1,0.4
					c0,0,0.3,0.5,0.5,1c-0.3-0.2-0.7-0.3-1.1-0.3c-0.4,0-0.9,0.1-1.2,0.4c-0.2-0.8-0.7-1.9-0.7-1.9l0,0c-0.1-0.1-0.2-0.2-0.4-0.1
					c-0.1,0.1-0.2,0.2-0.1,0.4c0,0,0.3,0.7,0.6,1.3c-0.3-0.2-0.8-0.4-1.2-0.4c-0.5,0-1.1,0.2-1.4,0.6c-0.2-0.9-0.8-2.1-0.8-2.2l0,0
					c-0.1-0.1-0.2-0.2-0.4-0.1c-0.1,0.1-0.2,0.2-0.1,0.4c0,0,0.3,0.8,0.6,1.5c-0.4-0.3-0.8-0.4-1.3-0.4c-0.5,0-1,0.2-1.4,0.5
					c-0.2-0.9-0.8-2.2-0.8-2.2l0,0c-0.1-0.1-0.2-0.2-0.4-0.1c-0.1,0.1-0.2,0.2-0.1,0.4c0,0,0.3,0.6,0.5,1.2
					c-0.5-0.3-1.1-0.6-1.9-0.6c-0.1,0-0.2,0-0.3,0c-1.7,0-2.7,1-2.7,2.3c0,0.6,0.3,1.2,0.7,1.8h-1.1c-0.2-0.1-0.3-0.3-0.4-0.6
					c-0.2-0.4-0.2-0.9-0.2-1.5c0-1.2,0.3-2.8,0.5-3.6c0-0.1-0.1,0-0.1,0l-1.8-0.5C95.5,396.2,95.1,398,95.1,399.5z M113.7,400.8
					c0-0.2,0-0.5,0.1-0.7h0c0-0.3,0.4-0.5,0.9-0.5c0.5,0,1,0.3,1,0.8c0,0.1,0,0.3,0,0.4c0,0.4-0.1,0.7-0.3,0.8h-1.6
					C113.8,401.4,113.7,401.2,113.7,400.8z M110.7,400.8c0-0.2,0-0.5,0.1-0.8h0c0.1-0.3,0.5-0.6,1-0.6c0.6,0,1.1,0.3,1.2,0.9
					c0,0.2,0,0.3,0,0.4c0,0.5-0.1,0.7-0.3,0.9H111C110.8,401.4,110.8,401.1,110.7,400.8z M107.5,400.7c0-0.3,0-0.6,0.1-0.9
					c0.1-0.4,0.6-0.7,1.1-0.7c0.6,0,1.2,0.3,1.3,1c0,0.2,0,0.3,0,0.5c0,0.4-0.1,0.7-0.3,0.9h-2.1
					C107.6,401.4,107.6,401.1,107.5,400.7z M107.1,401.6C107.1,401.6,107.1,401.5,107.1,401.6C107.1,401.5,107.1,401.6,107.1,401.6
					L107.1,401.6z M104,400.6c0-0.3,0-0.6,0.1-0.9c0.1-0.4,0.6-0.7,1.2-0.7c0.7,0,1.3,0.3,1.4,1.1c0,0.2,0,0.4,0,0.5
					c0,0.5-0.1,0.9-0.4,1.1h-2.1C104.1,401.4,104.1,401.1,104,400.6z M103.5,401.6c0,0,0.1-0.1,0.1-0.2c0,0.1,0,0.1,0.1,0.2H103.5z
					 M98.8,399.8c0-0.9,0.7-1.7,2.1-1.7c0.1,0,0.2,0,0.3,0c1.9,0.2,2.3,1,2.3,1.8c0,0.4-0.1,0.8-0.3,1.1c-0.2,0.3-0.4,0.5-0.5,0.5
					c0,0-0.1,0-0.1,0.1h-2.8C99.1,401,98.8,400.4,98.8,399.8z"/>
			</g>
		</g>
	</g>
	<g id="HIPS_L">
	</g>
	<g id="HIPS_M">
	</g>
	<g id="HIPS_S">
	</g>
	<g id="HIPS_XS">
	</g>
	<g id="STOMACH-XS">
	</g>
	<g id="TAPAS_SOMACH-S">
	</g>
	<g id="STOMACH-S_1_">
	</g>
	<g id="TAPAS_STOMACH-M">
	</g>
	<g id="STOMACH-M">
	</g>
	<g id="TAPAS_STOMCH-L">
	</g>
	<g id="STOMACH-L">
	</g>
	<g id="TAPAS_STOMACH_XL">
	</g>
	<g id="STOMACH-XL">
	</g>
	<g id="TAPAS_HIPS-XL">
	</g>
	<g id="TAPAS_HIPS_L">
	</g>
	<g id="TAPAS_HIPS_-_M">
	</g>
	<g id="TAPAS_HIPS_-_S">
	</g>
	<g id="TAPAS_HIPS_-_XS">
	</g>
</g>
<g id="SIDE" class="st3">
	<g id="HIPS_M_1_" class="st4">
	</g>
	<g id="HIPS_S_1_" class="st4">
	</g>
	<g id="HIPS_XS_1_" class="st4">
	</g>
	<g id="STOMACH_XS" class="st4">
	</g>
	<g id="STOMACH_S" class="st4">
	</g>
	<g id="STOMACH_M" class="st4">
	</g>
	<g id="STOMACH_L" class="st4">
	</g>
	<g id="STOMACH_XL" class="st4">
	</g>
	<g id="TAPA_CHEST_XL" class="st4">
	</g>
	<g id="CHEST_XL" class="st4">
	</g>
	<g id="TAPA_CHEST_L" class="st4">
	</g>
	<g id="CHEST_L" class="st4">
	</g>
	<g id="TAPA_CHEST_M" class="st4">
	</g>
	<g id="CHEST_M" class="st4">
	</g>
	<g id="CHEST_S" class="st4">
	</g>
	<g id="CHEST_XS" class="st4">
	</g>
</g>
</svg>
