<?xml version="1.0" encoding="utf-8"?>
<!-- Generator: Adobe Illustrator 21.1.0, SVG Export Plug-In . SVG Version: 6.00 Build 0)  -->
<svg version="1.1" xmlns="http://www.w3.org/2000/svg" xmlns:xlink="http://www.w3.org/1999/xlink" x="0px" y="0px"
	 viewBox="0 0 180 420" style="enable-background:new 0 0 180 420;" xml:space="preserve">
<style type="text/css">
	.st0{display:none;}
	.st1{display:inline;}
	.st2{fill:none;stroke:#666666;stroke-width:2;stroke-miterlimit:10;}
	.st3{fill:#666666;}
	.st4{fill:#FFFFFF;}
	.st5{fill:none;stroke:#666666;stroke-width:0.5;stroke-linecap:round;stroke-miterlimit:10;}
	.st6{fill:none;}
</style>
<g id="FRONT" class="st0">
	<g id="HIPS_XL" class="st1">
	</g>
	<g id="HIPS_L" class="st1">
	</g>
	<g id="HIPS_M" class="st1">
	</g>
	<g id="HIPS_S" class="st1">
	</g>
	<g id="HIPS_XS" class="st1">
	</g>
	<g id="STOMACH-XS" class="st1">
	</g>
	<g id="TAPAS_SOMACH-S" class="st1">
	</g>
	<g id="STOMACH-S_1_" class="st1">
	</g>
	<g id="TAPAS_STOMACH-M" class="st1">
	</g>
	<g id="STOMACH-M" class="st1">
	</g>
	<g id="TAPAS_STOMCH-L" class="st1">
	</g>
	<g id="STOMACH-L" class="st1">
	</g>
	<g id="TAPAS_STOMACH_XL" class="st1">
	</g>
	<g id="STOMACH-XL" class="st1">
	</g>
	<g id="TAPAS_HIPS-XL" class="st1">
	</g>
	<g id="TAPAS_HIPS_L" class="st1">
	</g>
	<g id="TAPAS_HIPS_-_M" class="st1">
	</g>
	<g id="TAPAS_HIPS_-_S" class="st1">
	</g>
	<g id="TAPAS_HIPS_-_XS" class="st1">
	</g>
</g>
<g id="SIDE">
	<g id="HIPS_L_4_">
	</g>
	<g id="HIPS_L_3_">
	</g>
	<g id="HIPS_M_1_">
	</g>
	<g id="HIPS_S_1_">
	</g>
	<g id="HIPS_XS_1_">
	</g>
	<g id="STOMACH_XS">
	</g>
	<g id="STOMACH_S">
	</g>
	<g id="STOMACH_M">
	</g>
	<g id="STOMACH_L">
	</g>
	<g id="STOMACH_XL">
	</g>
	<g id="TAPA_CHEST_XL">
	</g>
	<g id="CHEST_XL">
	</g>
	<g id="TAPA_CHEST_L">
	</g>
	<g id="CHEST_L">
	</g>
	<g id="TAPA_CHEST_M">
	</g>
	<g id="CHEST_M">
		<g>
			<path class="st3" d="M48.5,138.4c-7.6-6.1-8.8-14.7-6-19.9c1.9-3.8,5.6-6.9,9.8-10.4c2.1-1.8,4.3-3.6,6.4-5.6
				c5.5-5.3,8.8-10.6,9.5-14.8l2,0.3c-0.5,3.3-2.7,8.8-10.1,16c-2.2,2.1-4.3,3.9-6.5,5.7c-4.1,3.4-7.6,6.4-9.3,9.8
				c-2.4,4.6-1.2,12,5.5,17.5L48.5,138.4z"/>
			<path class="st3" d="M93.7,81c2.3-2.6,4.5-6.4,5.4-11.3c0.2-1.4,0.3-3.5,0.3-4.7c0-6.1-2.6-10.6-2.8-15.8c0-0.2,0-0.4,0-0.6
				c0-2.9,0.9-6.5,0.9-9.6c0-7.7-7.4-19.9-23-20.6c-0.1,0-0.3,0-0.4,0c-5.2,0-18,3.6-21.6,4.9c-1.6,0.5-2.8,1.9-2.8,3.6
				c0,0.5,0.1,1,0.2,1.6c0.4,1.4,1.3,3.2,2.2,4.6c-1.3,3.6-1.9,6.7-1.9,9.2c0,0.3,0,0.6,0,0.8c0.1,1.6,0.9,4.2,0.8,5.1c0,0,0,0,0,0
				c-0.4,1.4-1.2,3.2-1.8,4.3c-0.7,1.2-1.4,2.1-1.7,2.7c-0.3,0.5-0.5,1.1-0.5,1.7c0,0.7,0.4,1.5,1.1,1.9c0.5,0.3,1.1,0.6,1.7,0.9
				c0.2,0.5,0.4,0.9,0.4,1.2c0,0.1,0,0.1,0,0.2c-0.3,0.3-0.6,0.8-0.5,1.1c0,0.6,0.2,1,0.5,1.4C50.1,64,50,64.3,50,64.7
				c0,0.4,0.1,0.9,0.4,1.3c0.2,0.3,0.5,0.4,0.8,0.5c0.1,0.2,0.3,1.6,0.4,2c0,0.2,0.1,0.4,0.1,0.8c0,0.4,0,0.9,0,1.5
				c0,0.1,0,0.2,0,0.2c0,0.8,0.1,1.7,0.6,2.5c0.5,0.8,1.4,1.5,2.5,1.7c0.5,0.1,1.1,0.1,1.7,0.1c2.6,0,5.7-0.7,8-1.6
				c0.5,1.6,1.3,3.9,2,6.3c0.7,2.4,1.4,5.7,1.7,7.5l1.9,0.3c0-2.7-0.7-6.1-1.5-8.4c-1.1-3.1-1.9-6.2-2.4-7.5
				c-0.1-0.2-0.1-0.4-0.2-0.7c2.6-1.6,3.8-3.4,4.2-4.9c0-0.1,0-0.3-0.2-0.3c-0.2,0-0.3,0-0.3,0.2c-0.4,1.3-1.4,3-3.9,4.5
				c-0.3,0.2-1,0.5-1,0.5c-1.9,1-5.5,1.9-8.1,1.9c-0.5,0-1,0-1.4-0.1c-0.6-0.1-0.8-0.3-1-0.6c-0.2-0.3-0.3-0.9-0.3-1.4c0,0,0,0,0,0
				l0,0c0-0.6,0-1.1,0-1.6c0-0.4,0-0.9-0.1-1.3c-0.1-0.5-0.3-1.9-0.5-2.3c0-0.1-0.1-0.1-0.1-0.2c0.7-0.5,1.2-1.4,1.7-1.6
				c0.1,0,0.1,0,0.2,0c0.1,0,0.2-0.2,0.2-0.4c0-0.1-0.1-0.2-0.2-0.2c-0.9-0.2-1.5-1.1-2.6-1.5c0.1-0.3,0.2-0.6,0.2-0.9
				c0-1.1-0.5-1.8-0.7-2.3c-0.1-0.3-0.4-0.6-0.7-0.7c-0.2,0-1-0.5-1.7-0.9c0,0,0,0,0-0.1c0-0.1,0-0.4,0.2-0.7
				c0.2-0.3,0.9-1.4,1.6-2.6c0.8-1.3,1.6-3.3,2.1-4.9l0-0.2c0-0.1,0-0.2,0-0.3c0-1.4-0.6-3.5-0.8-4.8c0.9-0.3,1.9-0.6,3-0.6
				c1.4,0,2.9,0.4,4.3,1.8c0.1,0.1,0.1,0.1,0.2,0.1c0.1,0,0.1,0,0.2-0.1c0.1-0.1,0.1-0.3,0-0.4c-1.5-1.5-3.2-2-4.7-2
				c-1.1,0-2.2,0.3-3,0.6c0-0.2,0-0.4,0-0.6c0-2.3,0.6-5.4,2-9c2.8,3.8,7.4,9.6,12.5,15.1c1.7,1.8,3,4,4,5.7c0.1,0.9,0.6,2,0.6,2.4
				c0,0.4-0.2,0.7-0.3,1c-0.2,0.3-0.4,0.5-0.4,0.9c0,0.1,0.1,0.2,0.1,0.2c0.1,0.1,0.1,0.1,0.2,0.1c0.1,0,0.1,0,0.2-0.1
				c0.1-0.1,0.1-0.1,0.1-0.2c0-0.1,0.2-0.3,0.3-0.6c0.2-0.3,0.4-0.8,0.4-1.3c0-0.1,0-0.2,0-0.2c0.5,1.2,1,2.3,1.2,3.5
				c0,0.1,0,0.1,0,0.1c-0.3,1.6-1.4,2.8-2.3,2.7c-0.1,0-0.3,0-0.4-0.1c-0.1-0.1-0.3,0-0.4,0.2c-0.1,0.1,0,0.3,0.2,0.4
				c0.2,0.1,0.4,0.1,0.6,0.1c1.1,0,2.1-0.9,2.6-2.2c0.2,1.2,0.3,2.3,0.3,3.4c0,3.6-1,8-2.5,11.6c0,0.1,0,0.2,0,0.2
				c2,4.4,8.2,8.6,13.6,8.6c0.5,0,0.9,0,1.4-0.1c0.1,0.1,0.1,0.3,0.1,0.4c0.2,0.5,0.9,1.7,1.1,2.3l1.8-0.8c-0.2-0.5-0.4-0.9-0.6-1.3
				C90.1,84.6,91.9,83.2,93.7,81z M52.8,65.1c-0.2,0-0.5,0-0.6-0.3c-0.2-0.3,0-0.9,0.2-1c0.5,0,1.1,0.1,1.5,0.2
				C53.6,64.4,53.2,64.8,52.8,65.1z M51.9,62.3c0.7,0.1,1.8,1,2.3,1.3c-0.5,0.1-1.4-0.2-1.8-0.3c-0.2-0.1-0.4-0.3-0.5-0.6
				C51.9,62.7,51.8,62.4,51.9,62.3z M84.9,84.3c-0.1,0-0.2,0-0.3,0c4.7-2.1,8.9-9.1,8.9-15.8c0-0.3,0-1.5,0-1.8
				c0-0.2-0.1-0.3-0.3-0.3c-0.2,0-0.3,0.1-0.3,0.3h0c0,0.3,0,1.5,0,1.7c0,7-4.9,14.5-9.6,15.7c0,0-0.1,0-0.1,0
				c-0.5-0.1-1-0.2-1.6-0.4c2.2-1.3,3.4-5.4,3.4-5.4c0-0.1,0-0.3-0.2-0.3c-0.1,0-0.3,0-0.3,0.2c0,0-0.4,1.2-1,2.5
				c-0.6,1.3-1.6,2.6-2.6,2.8c-3.9-1.3-7.6-4.3-9-7.4c1.5-3.6,2.5-8.1,2.5-11.7c0-3.4-0.9-6.9-3-10.4c0,0-0.1-0.1-0.1-0.2
				c-1-1.8-2.4-4-4.1-5.8c-6.2-6.6-11.6-13.7-13.9-17.2c-0.6-1-1.1-2.1-1.3-2.9c-0.1-0.4-0.2-0.8-0.2-1c0.1-0.9,0.3-1.2,1.4-1.7
				c0.5-0.2,1.4-0.5,2.4-0.8c0,0.2-0.1,0.4-0.1,0.6c0,1.7,1.2,4,2.4,5.8c0.1,0.1,0.1,0.1,0.2,0.1c0.1,0,0.1,0,0.2,0
				c0.1-0.1,0.2-0.3,0.1-0.4c-1.2-1.8-2.3-4-2.3-5.5c0-0.3,0.1-0.6,0.2-0.8c5.2-1.5,14.3-3.8,17.8-3.8c0.1,0,0.2,0,0.3,0
				c14.5,0.5,21,11.9,21,18.5c0,2.7-0.9,6.3-0.9,9.6c0,0.2,0,0.5,0,0.7c0.1,1.1,0.2,2.6,0.4,3.5c-0.3-0.7-0.6-1.8-0.9-2.5
				c-1.5-3.6-0.4-7.2-3.5-11.8c-0.1-0.1-0.3-0.2-0.4-0.1c-0.1,0.1-0.2,0.3-0.1,0.4l0,0c3,4.5,1.9,7.9,3.5,11.7
				c0.8,1.8,1.5,3.8,2.1,5.2c0.8,3,1.7,5.8,1.7,9.2c0,1.1-0.1,3.1-0.3,4.3c-0.8,4.4-2.8,7.8-4.9,10.3c-2.1,2.4-4.3,3.9-5.2,4.3
				C86.3,84.3,85.5,84.3,84.9,84.3z"/>
			<path class="st3" d="M54.6,45.8c-0.1,0-0.2,0-0.4,0c-0.2,0-0.3,0.2-0.2,0.3c0,0.2,0.2,0.3,0.3,0.2c0.1,0,0.2,0,0.3,0
				c0.4,0,0.8,0.1,1.1,0.3c-0.2,1-0.1,2,0.1,2.9c-0.2,0-0.3,0-0.5,0c-0.3,0-0.5,0-0.5,0c-0.2,0-0.3,0.1-0.3,0.3
				c0,0.2,0.1,0.3,0.3,0.3v0c0,0,0.2,0,0.5,0c0.7,0,2.1,0,3-0.5c0.1-0.1,0.2-0.2,0.2-0.3c0,0,0-0.1,0-0.1
				C58.2,48,56.8,45.9,54.6,45.8z"/>
			<g>
				<path class="st3" d="M67.3,94.7c1.5-1.8,2.8-2.5,4.8-2.6c2.4-0.1,3.2-1.2,5.4-1.5c0.2,0,0.3-0.2,0.2-0.3c0-0.2-0.2-0.3-0.3-0.2
					v0c-2.4,0.3-3.2,1.4-5.4,1.5c-1.5,0.1-2.6,0.5-3.7,1.3c-0.3,0.5-0.5,0.8-0.6,1.1L67.3,94.7z"/>
			</g>
			<g>
				<path class="st6" d="M49.4,137.2C49.4,137.3,49.4,137.3,49.4,137.2c1.8,0,3.5-0.9,4.6-1.8c0.1-0.1,0.3-0.1,0.4,0
					c0.1,0.1,0.1,0.3,0,0.4c-1.1,0.9-2.7,1.8-4.5,2"/>
				<path class="st3" d="M49.7,137.8c0.1,0,0.1,0,0.2,0c1.8-0.1,3.4-1,4.5-2c0.1-0.1,0.1-0.3,0-0.4c-0.1-0.1-0.3-0.1-0.4,0
					c-1.1,1-2.8,1.8-4.6,1.9c0,0,0,0.1,0,0.1"/>
			</g>
		</g>
	</g>
	<g id="CHEST_S">
	</g>
	<g id="CHEST_XS">
	</g>
</g>
</svg>
