<?xml version="1.0" encoding="utf-8"?>
<!-- Generator: Adobe Illustrator 21.1.0, SVG Export Plug-In . SVG Version: 6.00 Build 0)  -->
<svg version="1.1" xmlns="http://www.w3.org/2000/svg" xmlns:xlink="http://www.w3.org/1999/xlink" x="0px" y="0px"
	 viewBox="0 0 180 420" style="enable-background:new 0 0 180 420;" xml:space="preserve">
<style type="text/css">
	.st0{fill:none;stroke:#666666;stroke-width:2;stroke-miterlimit:10;}
	.st1{fill:#666666;}
	.st2{fill:#FFFFFF;}
	.st3{display:none;}
	.st4{display:inline;}
	.st5{fill:none;stroke:#666666;stroke-width:0.5;stroke-linecap:round;stroke-miterlimit:10;}
	.st6{fill:none;}
</style>
<g id="FRONT">
	<g id="HIPS_XL">
	</g>
	<g id="HIPS_L">
	</g>
	<g id="HIPS_M">
	</g>
	<g id="HIPS_S">
	</g>
	<g id="HIPS_XS">
	</g>
	<g id="STOMACH-XS">
		<g>
			<g>
				<path class="st1" d="M151.1,232.8c-0.5,0-1.1-0.2-1.6-0.5c-0.6,0.1-1.2,0.1-1.8-0.1c-0.7-0.2-1.4-1-1.9-2.1
					c-0.3,0.1-0.6,0.1-0.9,0.1c-1,0-2.1-1-2.5-2.2c-0.6-1.5-1.3-4.8-2-8c-0.4-1.8-0.8-3.5-1.1-4.7c-0.5-1.8-0.5-3.5-0.5-7.8v-1.1
					c0-1.6,0.2-4.6,0.4-6.1c-1.2-5-4.5-11.9-7.7-18.7c-2.7-5.7-5.5-11.6-7-16.3c-1.5-4.6-1.7-7.4-1.9-11.1c-0.1-1.2-0.2-2.5-0.3-4
					c-0.3-3.4-2-14.2-3.1-20.4c-0.7,1.2-1.6,2.4-2.7,3.6c-0.7,3.3-2.2,6.7-3.6,10c-2.2,5.1-4.5,10.3-4.2,15.2l-2,0.1
					c-0.3-5.4,2-10.9,4.3-16.2c1.5-3.4,2.9-6.7,3.6-9.9l0.1-0.3l0.2-0.2c1.5-1.6,2.7-3.3,3.4-5l0.3-0.6h2.1l0.2,0.8
					c1.1,5.7,3.2,18.8,3.5,22.6c0.1,1.5,0.2,2.8,0.3,4c0.2,3.6,0.4,6.2,1.8,10.6c1.5,4.5,4.2,10.4,6.9,16.1
					c3.3,6.9,6.7,14.1,7.9,19.3l0,0.2l0,0.2c-0.2,1.4-0.4,4.5-0.4,6v1.1c0,4,0,5.7,0.4,7.2c0.3,1.2,0.7,2.9,1.1,4.8
					c0.6,3,1.4,6.3,1.9,7.8c0.2,0.5,0.6,0.8,0.7,0.8c0,0,0,0,0,0c0.4,0,0.7-0.1,0.8-0.2l1.2-0.8l0.4,1.4c0.3,1,0.8,1.6,1,1.7
					c0.3,0.1,0.6,0,0.8,0l0.6-0.3l0.5,0.4c0.4,0.3,0.7,0.4,0.9,0.4c0.1,0,0.5-0.2,0.5-0.3l0.1-0.9h0.9c0.5,0,0.9,0,1-0.1
					c0.1-0.1,0.4-0.6,0.4-0.8c0.2-1.9,0.2-4-0.1-8.1c-0.1-1.4-0.5-3.4-0.8-5.3c-0.3-1.5-0.5-2.9-0.7-4.1l-0.3-2.1l1.8,1.2
					c1.6,1,3.1,3.3,4.2,5c0.4,0.6,0.7,1,0.9,1.3c0.3,0.4,0.6,0.6,0.9,0.8c-2-2.8-3.7-7.2-5.2-11.1l0-0.1c-0.7-1.8-4.7-5.5-6.5-6.9
					l-0.2-0.2l-0.1-0.3c-2.4-6.7-4-17.6-5.4-26.4c-0.6-4.2-1.2-7.8-1.7-10.3c-0.7-3.3-2.8-7.3-4.4-10.2c-0.9-1.7-1.6-2.9-1.8-3.7
					l0-0.2c-0.4-5.1-1.1-18.2-0.8-29c0.3-9.3-1.2-20.7-4.7-24.6c-2.1-2.4-5.9-3-8.9-3.3l0.2-2c3.4,0.3,7.6,1,10.2,4
					c4,4.4,5.5,16.6,5.2,26c-0.3,10.7,0.4,23.5,0.8,28.7c0.2,0.6,0.9,1.9,1.7,3.3c1.6,3,3.9,7.1,4.6,10.7c0.5,2.6,1.1,6.2,1.7,10.4
					c1.3,8.6,2.9,19.3,5.2,25.8c1.7,1.3,6,5.1,7,7.6l0,0.1c1.7,4.3,3.7,9.7,5.9,11.9l0.7,0.7l-0.7,0.7c-0.5,0.5-1.3,0.8-2.2,0.7
					c-0.8,0-1.9-0.4-2.9-1.6c-0.3-0.3-0.6-0.8-1-1.4c-0.4-0.7-0.9-1.5-1.5-2.2c0.1,0.3,0.1,0.6,0.2,0.9c0.4,2,0.7,4,0.8,5.5
					c0.4,4.3,0.3,6.4,0.1,8.5c-0.1,0.6-0.6,1.9-1.5,2.4c-0.4,0.2-0.8,0.3-1.2,0.3c-0.5,0.7-1.3,1.1-1.9,1.2
					C151.3,232.8,151.2,232.8,151.1,232.8z"/>
				<path class="st1" d="M30.9,232.8c-0.1,0-0.2,0-0.3,0c-0.6-0.1-1.5-0.5-1.9-1.2c-0.4,0-0.9-0.1-1.2-0.3c-0.9-0.5-1.5-1.8-1.5-2.4
					c-0.2-2.1-0.2-4.2,0.1-8.5c0.1-1.5,0.5-3.5,0.8-5.5c0.1-0.3,0.1-0.6,0.2-0.9c-0.6,0.8-1.1,1.6-1.5,2.2c-0.4,0.6-0.7,1.1-1,1.4
					c-1,1.3-2.1,1.6-2.9,1.6c-0.8,0-1.7-0.2-2.2-0.7l-0.7-0.7l0.7-0.7c2.2-2.2,4.2-7.5,5.9-11.9l0-0.1c0.9-2.4,5.2-6.2,7-7.6
					c2.3-6.5,3.9-17.2,5.2-25.8c0.6-4.2,1.2-7.8,1.7-10.4c0.7-3.6,3-7.7,4.6-10.7c0.8-1.4,1.4-2.6,1.7-3.3c0.4-5.2,1.1-18,0.8-28.7
					c-0.3-9.4,1.2-21.5,5.2-26c2.7-3,7-3.7,10.5-4l0.2,2c-3.1,0.3-7,0.9-9.2,3.3c-3.4,3.8-5,15.3-4.7,24.6c0.3,10.8-0.5,23.9-0.8,29
					l0,0.2c-0.2,0.8-0.9,2-1.8,3.7c-1.6,2.9-3.8,6.9-4.4,10.2c-0.5,2.5-1.1,6.1-1.7,10.3c-1.3,8.8-3,19.8-5.4,26.5l-0.1,0.3
					l-0.2,0.2c-1.9,1.4-5.8,5-6.5,6.9l0,0.1c-1.5,4-3.2,8.4-5.2,11.2c0.3-0.1,0.6-0.4,0.9-0.8c0.2-0.2,0.5-0.7,0.9-1.3
					c1.1-1.7,2.6-4,4.2-5l1.8-1.2l-0.3,2.1c-0.2,1.2-0.4,2.6-0.7,4.1c-0.3,1.9-0.7,3.9-0.8,5.3c-0.4,4.1-0.3,6.2-0.1,8.1
					c0,0.2,0.3,0.7,0.4,0.8c0.2,0.1,0.6,0.1,0.9,0.1l0.9,0l0.2,0.9c0,0.2,0.3,0.3,0.5,0.3c0.2,0,0.6-0.1,0.9-0.4l0.5-0.4l0.6,0.3
					c0.2,0.1,0.5,0.1,0.8,0c0.1-0.1,0.7-0.8,1-1.7l0.4-1.4l1.2,0.8c0.1,0.1,0.4,0.2,0.9,0.2c0.1,0,0.5-0.3,0.7-0.8
					c0.6-1.5,1.3-4.8,1.9-7.8c0.4-1.8,0.8-3.6,1.1-4.8c0.4-1.5,0.4-3.2,0.4-7.3v-1c0-1.6-0.2-4.7-0.4-6l0-0.2l0-0.2
					c1.3-5.2,4.6-12.3,7.9-19.3c2.7-5.7,5.4-11.5,6.9-16.1c1.4-4.4,1.6-7,1.8-10.6c0.1-1.2,0.2-2.5,0.3-4c0.3-3.9,2.4-17,3.5-22.6
					l0.2-0.8h2.1l0.3,0.6c0.7,1.7,1.9,3.4,3.4,5l0.2,0.2l0.1,0.3c0.6,2.9,1.7,6,2.8,9.2c2,5.7,4.1,11.5,3.7,17.2l-2-0.1
					c0.3-5.2-1.7-10.9-3.6-16.4c-1.1-3.2-2.2-6.2-2.8-9.2c-1.1-1.2-2-2.4-2.7-3.6c-1.1,6.2-2.8,17-3.1,20.4c-0.1,1.5-0.2,2.8-0.3,4
					c-0.2,3.8-0.4,6.5-1.9,11.1c-1.5,4.7-4.3,10.6-7,16.3c-3.2,6.8-6.5,13.8-7.7,18.7c0.2,1.5,0.4,4.5,0.4,6.1v1c0,4.2,0,6-0.5,7.8
					c-0.3,1.1-0.7,2.9-1.1,4.7c-0.7,3.2-1.4,6.4-2,8c-0.4,1.2-1.5,2.1-2.5,2.1c-0.3,0-0.6,0-0.9-0.1c-0.5,1-1.2,1.8-1.9,2.1
					c-0.6,0.2-1.2,0.2-1.8,0.1C32.1,232.7,31.5,232.8,30.9,232.8z"/>
			</g>
			<g>
				<path class="st1" d="M89.6,55.6c0.2,0.1,0.3,0.1,0.5,0.1c0.2,0,0.4,0,0.5,0c0,0,0,0,0,0c0.1-0.1,0.4,0.5,1.2,0.5l0,0v0
					c0,0,0,0,0,0c0.8,0,1.1-0.5,1.2-0.5c0,0,0,0,0,0c0.1,0,0.3,0,0.5,0c0.2,0,0.3,0,0.5-0.1c0.2-0.1,0.4-0.3,0.4-0.5
					c0-0.2-0.1-0.3-0.3-0.3c-0.1,0-0.3,0.1-0.3,0.3c0,0,0,0-0.1,0c-0.1,0-0.2,0-0.3,0c-0.2,0-0.3,0-0.5,0c-0.1,0-0.1,0-0.2,0
					c-0.6,0.2-0.5,0.5-1.1,0.5h0c-0.6,0-0.5-0.3-1.1-0.5c-0.1,0-0.1,0-0.2,0c-0.1,0-0.3,0-0.5,0c-0.1,0-0.3,0-0.3,0l0,0
					c0-0.1-0.1-0.3-0.3-0.3c-0.2,0-0.3,0.1-0.3,0.3C89.2,55.4,89.4,55.6,89.6,55.6z"/>
				<path class="st1" d="M95.6,42.8L95.6,42.8c1.1-1.1,2.6-1.5,4-1.5c1.7,0,3.4,0.6,4.5,1.6c0.1,0,0.1,0.1,0.2,0.1
					c0.1,0,0.2,0,0.2-0.1c0.1-0.1,0.1-0.3,0-0.4c-1.2-1-3-1.7-4.9-1.7c-1.6,0-3.2,0.5-4.4,1.7c-0.1,0.1-0.1,0.3,0,0.4
					C95.3,42.9,95.5,42.9,95.6,42.8z"/>
				<path class="st1" d="M103.1,48.2c0.1,0,0.2-0.1,0.2-0.3l0-0.8c0-0.2-0.1-0.3-0.3-0.3c-0.2,0-0.3,0.1-0.3,0.3
					c-0.6-0.6-1.5-1.3-2.9-1.3c0,0-0.1,0-0.1,0c-1.2,0-2.2,0.4-3,1.2l0,0c0-0.2-0.2-0.3-0.3-0.2c-0.2,0-0.3,0.2-0.2,0.3h0l0.1,0.7
					c0,0.1,0.1,0.2,0.2,0.2c0.1,0,0.2,0,0.3-0.1c0.4-0.6,0.8-1,1.4-1.2c-0.1,0.6,0.5,1.6,0.8,1.6c0.4,0,1.4,0,1.6,0
					c0.4,0,0.8-1,0.7-1.5c0.7,0.4,1.1,0.9,1.4,1.3C102.8,48.2,102.9,48.3,103.1,48.2C103,48.3,103,48.3,103.1,48.2z"/>
				<path class="st1" d="M62,88.9l0,2c1.3-0.2,2.6-0.1,3.8-0.2c4.8,0.2,7.6,1.2,10.4,1.4c2.2,0.1,5.5-0.1,10.2,1.1c0,0,0,0,0.1,0
					c0.1,0,0.2-0.1,0.3-0.2c0-0.2-0.1-0.3-0.2-0.3h0c-4.8-1.2-8.2-1-10.3-1.1c-2-0.1-4.2-0.8-7.3-1.1c0.1,0,0.3-0.1,0.4-0.1
					c3.9-1.2,10.4-3.7,13.6-7.8c0.1-0.1,0.1-0.2,0.2-0.4c0.4-1.6,0.7-4.4,0.9-7.1c0-0.2,0-0.5,0-0.7c1.4,9.9,4.7,13.8,5.2,16.2
					c0.4,2.7,1.6,3.2,2.6,3.2c0,0,0.1,0,0.1,0l0,0c0,0,0.1,0,0.1,0c0.9,0,2.1-0.5,2.6-3.2c0.4-2.4,3.8-6.3,5.1-16.2
					c0,0.2,0,0.5,0,0.7c0.2,2.7,0.4,5.4,0.9,7.1c0,0.1,0.1,0.2,0.2,0.4c3.2,4.1,9.7,6.6,13.6,7.8c0.1,0,0.3,0.1,0.4,0.1
					c-3.1,0.4-5.3,1-7.3,1.1c-2.1,0.1-5.6-0.1-10.3,1.1c-0.1,0-0.2,0.2-0.2,0.3c0,0.1,0.1,0.2,0.3,0.2c0,0,0,0,0.1,0
					c4.7-1.2,8-1,10.2-1.1c2.7-0.1,5.5-1.2,10.4-1.4c0.7,0,1.4,0.1,2.2,0.1l0.2-2c-2.3-0.2-4.4-0.3-5.3-0.6
					c-2.9-0.8-7.5-2.7-10.5-5.1c3-1.3,5.7-4.1,7.8-7.5c2.4-3.8,4.1-8.3,4.8-12.4c0.2-1.5,0.4-2.9,0.4-4.3c0-4.4-1.1-8.3-2.1-11.3
					c-0.5-1.5-1-2.8-1.4-3.8c-0.4-1-0.6-1.8-0.6-1.9c0-2.2-0.2-11-4.9-19.3c-1-1.7-2.7-2.4-4.3-2.4c-0.7,0-1.4,0.1-2.2,0.2
					c-0.3-0.5-0.5-1.1-1-1.8c-0.7-0.9-1.7-1.6-3.4-2.2c-1.3-0.4-3.3-0.6-5.6-0.6c-4.3,0-9.7,0.7-13.2,3.1c-8.2,5.7-6.6,16.9-7,20.5
					c-0.1,1.5-1.4,3.6-2.8,6.4c-1.4,2.8-2.9,6.5-3,11.4c0,0.4,0,0.8,0,1.2c0,9.3,3.8,20.1,13.3,24.7c-3,2.3-7.4,4.1-10.3,4.9
					C67.7,88.6,64.9,88.6,62,88.9z M93.9,90.6c-0.5,2.7-1.3,2.7-2.1,2.7l0,0c-0.8,0-1.6-0.1-2.1-2.7c-0.6-3-4.6-7.2-5.5-19.7
					c0-0.6,0-1,0.1-1.4c1.9,1.9,4.4,4,7.6,4l0,0v0h0l0,0c3.2,0,5.7-2.1,7.6-4c0,0.3,0,0.8,0.1,1.4C98.5,83.4,94.5,87.6,93.9,90.6z
					 M99.6,68.4c0,0-0.3,0.4-0.5,0.5c-1.9,2-4.3,4.1-7.3,4h0c-3,0-5.4-2.1-7.3-4c-0.1-0.2-0.5-0.5-0.5-0.5c-1-1.2-2.4-2.9-3.2-4.3
					c-0.9-1.6-1.5-3.4-1.9-4.7c-0.1-0.2-0.1-0.4-0.2-0.5c0,0,0,0,0,0c-1.2-4.8-1.2-8.5-1.4-12.3c0.6-1,1.1-1.9,1.6-2.7
					c0.3-0.4,0.7-0.9,0.8-0.9c0.8-0.9,2.4-1.5,4.1-1.5c1.5,0,3,0.5,4.1,1.6c0.1,0.1,0.1,0.1,0.2,0.1c0.1,0,0.1,0,0.2-0.1
					c0.1-0.1,0.1-0.3,0-0.4h0c-1.2-1.2-2.9-1.7-4.5-1.7c-1.3,0-2.5,0.3-3.4,0.9c2.2-3,4.9-4.4,9.8-6.5c3.7-1.6,6.7-4.3,8.3-7.4
					c-0.1,1-0.2,1.9-0.2,2.8c0,3.1,1,5.7,3.9,8.9c1.1,1.3,2.6,2.9,4,4.9c-0.1,3.1-0.1,7.5-0.7,11.6c-0.1,0.4-0.3,1.2-0.3,1.3
					c0,0-0.2,0.9-0.5,2.2c-0.4,1.3-1,3.1-1.9,4.7C102,65.5,100.6,67.2,99.6,68.4z M77.7,56.1c-0.1,0.2-0.4,0.4-0.8,0.4
					c-0.4,0-0.7-0.6-0.8-0.9c-0.3-0.9-0.8-2.4-1.1-4.1c0.6-1.5,1.3-2.8,1.9-4.1C77,50.1,77.1,52.9,77.7,56.1z M106.7,44.9
					c0.8,1,1.5,2.1,2.2,3.3c-0.1,2.8-0.9,6-1.4,7.4c-0.2,0.5-0.4,0.8-0.8,0.8c-0.3,0-0.6-0.1-0.8-0.3
					C106.6,52.2,106.6,48,106.7,44.9z M67.8,58.7c0-0.4,0-0.8,0-1.2C68,53,69.3,49.7,70.6,47c0.7-1.5,1.5-2.8,2.1-4
					c1.7-2.9,2.5-6.3,2.8-8.4c0-0.2-0.1-0.3-0.2-0.3c-0.2,0-0.3,0.1-0.3,0.2v0c-0.2,1.3-0.6,3.1-1.3,5c0.2-4.4-0.7-14,6.1-18.7
					c2.8-2,8-2.8,12.1-2.7c2.2,0,4.1,0.2,5,0.5c1.4,0.4,1.9,0.9,2.3,1.4c0.4,0.5,0.7,1.2,1.2,2.2c0.2,0.4,0.7,0.6,1.1,0.5
					c1-0.2,1.9-0.3,2.6-0.3c1.3,0,1.9,0.3,2.5,1.3c4.1,7,4.6,14.7,4.7,17.5c-0.7-1.9-1-3.6-1-3.6c0-0.2-0.2-0.2-0.3-0.2
					c-0.2,0-0.2,0.2-0.2,0.3c0,0,0.7,3.3,1.9,5.8c0.1,0.3,0.2,0.6,0.4,1c1.2,3.1,3.4,8.3,3.4,14.4c0,1.3-0.1,2.6-0.3,4
					c-0.6,3.8-2.3,8.1-4.5,11.6c-2.2,3.5-5,6.2-7.7,7c0,0,0,0,0,0c-0.1-0.1-0.1-0.1-0.2-0.2c-0.3-1.3-0.6-4-0.7-6.4
					c-0.2-2.3-0.2-4.4-0.3-5.5c1-1.2,2.3-2.9,3.1-4.4c1.3-2.5,2.1-5.2,2.4-6.5c0,0,0,0,0,0c0.5,0,1.1-0.2,1.5-0.6
					c0.4-0.4,0.6-0.9,0.9-1.6c0.4-1.1,0.9-2.9,1.3-4.9c1.6,3.2,2.7,6.6,2.7,10.1c0,1.2-0.1,2.5-0.5,3.7c-1.8,7.1-7.5,9.2-9.3,9.2
					c-0.1,0-0.2,0-0.3,0c-0.1,0-0.3,0.1-0.3,0.2c0,0.2,0.1,0.3,0.2,0.3c0.1,0,0.3,0,0.4,0c2.1,0,8-2.2,9.8-9.6
					c0.3-1.3,0.5-2.6,0.5-3.8c0-9.3-7.7-18.2-11.5-22.6c-2.8-3.2-3.7-5.6-3.7-8.6c0-1.5,0.2-3.1,0.6-5c0-0.1,0.1-0.3,0.1-0.4
					c0-0.2-0.1-0.3-0.2-0.4c-0.2,0-0.3,0.1-0.3,0.2h0c-0.9,3.9-4.3,7.7-8.9,9.7c-4.9,2.1-7.7,3.6-10,6.7c-2.7,3.6-8.7,14.2-8.7,23.5
					c0,0.5,0,1,0.1,1.5c0.6,7.5,4.8,11.7,6.5,12.5c0,0,0.1,0,0.1,0c0.1,0,0.2-0.1,0.3-0.2c0.1-0.1,0-0.3-0.1-0.4
					c-1.5-0.7-5.7-4.8-6.2-12c0-0.5-0.1-1-0.1-1.5c0-3.2,0.7-6.6,1.8-9.7c0.2,0.5,0.3,1,0.4,1.3c0.2,0.6,0.5,1.1,0.9,1.6
					c0.4,0.4,1,0.7,1.5,0.6c0,0,0,0,0,0c0.3,1.4,1.1,4,2.4,6.5c0.8,1.5,2.1,3.2,3.1,4.4c-0.1,1.1-0.1,3.3-0.3,5.5
					c-0.2,2.5-0.4,5.1-0.7,6.4c-0.1,0.2-0.3,0.3-0.4,0.5c-0.1,0-0.2-0.1-0.3-0.1C71.6,77.9,67.8,67.6,67.8,58.7z"/>
				<path class="st1" d="M97,60.6c-0.1-0.1-0.3,0-0.4,0.2l0,0c0,0.2-0.3,0.3-0.7,0.4c-0.7-0.7-1.6-1.3-2.8-1.9
					c-0.2-0.1-0.3-0.1-0.5-0.1c-0.5,0-0.8,0.3-0.8,0.2h0c-0.1,0-0.3-0.2-0.8-0.2c-0.1,0-0.3,0-0.4,0.1c-1.2,0.5-2.2,1.2-2.8,1.9
					C87.3,61,87,60.9,87,60.7c-0.1-0.1-0.2-0.2-0.4-0.2c-0.1,0.1-0.2,0.2-0.2,0.4h0c0.2,0.5,0.8,0.7,1.4,0.8
					c0.3,0.4,0.9,1.4,1.4,1.8c0.6,0.4,1.5,0.7,2.5,0.7h0h0h0c1,0,1.9-0.3,2.5-0.7c0.5-0.4,1.1-1.4,1.4-1.8c0.6-0.1,1.2-0.2,1.4-0.8
					C97.2,60.8,97.1,60.6,97,60.6z M94,63c-0.4,0.3-1.3,0.6-2.2,0.6l0,0c-0.9,0-1.7-0.3-2.2-0.6c-0.3-0.2-0.6-0.8-1-1.3
					c0.2,0,0.3,0,0.5,0c0.5,0,0.8,0,1.1,0c0.3,0,0.5,0,0.7,0.1c0.2,0.1,0.5,0.2,0.9,0.2l0,0h0c0.4,0,0.7-0.1,0.9-0.2
					c0.2-0.1,0.4-0.1,0.7-0.1c0.3,0,0.6,0,1.1,0c0.2,0,0.3,0,0.5,0C94.6,62.2,94.2,62.8,94,63z M95,61.2c-0.2,0-0.3,0-0.5,0
					c-0.5,0-0.8,0-1.1,0c-0.4,0-0.6,0-0.9,0.2c-0.2,0.1-0.4,0.2-0.7,0.2h0c-0.3,0-0.4-0.1-0.7-0.2c-0.3-0.1-0.6-0.2-0.9-0.2
					c-0.3,0-0.6,0-1.1,0c-0.2,0-0.3,0-0.5,0c0,0-0.1,0-0.1,0c0.6-0.5,1.3-1,2.3-1.4c0.1,0,0.2-0.1,0.2-0.1c0.2,0,0.4,0.1,0.7,0.2
					c0,0,0.1,0,0.1,0c0.4,0,0.6-0.2,0.8-0.2c0.1,0,0.1,0,0.2,0.1c1,0.4,1.7,0.9,2.3,1.4C95.1,61.2,95.1,61.2,95,61.2z"/>
				<path class="st1" d="M86.8,47.9c0.1,0.1,0.2,0.1,0.3,0.1c0.1,0,0.2-0.1,0.2-0.2l0.1-0.7c0-0.2-0.1-0.3-0.2-0.3
					c-0.2,0-0.3,0.1-0.3,0.2v0l0,0c-0.8-0.8-1.8-1.2-3-1.2c0,0,0,0,0,0c-1.4,0-2.4,0.7-2.9,1.3c0-0.2-0.1-0.3-0.3-0.3
					c-0.2,0-0.3,0.1-0.3,0.3l0,0.8c0,0.1,0.1,0.2,0.2,0.3c0,0,0.1,0,0.1,0c0.1,0,0.2,0,0.2-0.1c0.2-0.4,0.7-0.9,1.4-1.3
					c-0.1,0.5,0.4,1.6,0.7,1.5c0.2,0,1.2,0,1.6,0c0.4,0,1-1,0.8-1.6C86,47,86.5,47.4,86.8,47.9z"/>
			</g>
			<g>
				<path class="st1" d="M77.3,134.7c-0.6,0.1-1.3,0.1-2,0.1c-2.5,0-5-0.6-7.2-2c-0.3-0.2-0.9-0.7-0.9-0.8c-3.5-3.7-4.4-7-4.4-10
					c0-3.8,1.7-7.1,2.3-9.7c0-0.1,0-0.2,0-0.3c0.1-2.2-1.2-4.4-2-5.4c0.2,1.1,0.4,3.6-0.1,5.3c-0.6,2.2-2.4,5.7-2.4,10.1
					c0,1.4,0.2,2.9,0.7,4.4c0,0.2,0.3,0.9,0.4,1.1c0.2,0.6-0.1-0.1,0.6,1.6c0.2,0.6,0.2,0.4,0.3,0.6c0.1,0.2,0.2,0.3,0.3,0.4
					c0.9,1.2,1.5,2,2.6,3.1c0,0.1,0-0.1,0,0l2.1-0.2c-0.1-0.4,0.1,0.3,0,0c2.3,1.6,5.1,2.2,7.7,2.2h0c0.7,0,1.4,0,2-0.1
					c0.2,0,0.3-0.2,0.2-0.3C77.6,134.8,77.5,134.7,77.3,134.7z"/>
				<g>
					<path class="st1" d="M73.3,125.8L73.3,125.8c-1.1,0-2.6-0.7-3.1-2c-0.1-0.1-0.2-0.2-0.4-0.2c-0.1,0.1-0.2,0.2-0.2,0.4
						c0.6,1.6,2.3,2.3,3.6,2.3c0.2,0,0.3-0.1,0.3-0.3C73.6,125.9,73.4,125.8,73.3,125.8z"/>
				</g>
			</g>
			<g>
				<path class="st1" d="M104.9,134.7c0.6,0.1,1.3,0.1,2,0.1c2.5,0,5-0.6,7.2-2c0.3-0.2,0.9-0.7,0.9-0.8c3.5-3.7,4.4-7,4.4-10
					c0-3.8-1.7-7.1-2.3-9.7c0-0.1,0-0.2,0-0.3c-0.1-2.2,1.2-4.4,2-5.4c-0.2,1.1-0.4,3.6,0.1,5.3c0.6,2.2,2.4,5.7,2.4,10.1
					c0,1.4-0.2,2.9-0.7,4.4c0,0.2-0.3,0.9-0.4,1.1c-0.2,0.6,0.1-0.1-0.6,1.6c-0.2,0.6-0.2,0.4-0.3,0.6c-0.1,0.2-0.2,0.3-0.3,0.4
					c-0.9,1.2-1.5,2-2.6,3.1c0,0.1,0-0.1,0,0l-2.1-0.2c0.1-0.4-0.1,0.3,0,0c-2.3,1.6-5.1,2.2-7.7,2.2h0c-0.7,0-1.4,0-2-0.1
					c-0.2,0-0.3-0.2-0.2-0.3C104.6,134.8,104.8,134.7,104.9,134.7z"/>
				<g>
					<path class="st1" d="M108.7,126.1c0,0.2,0.1,0.3,0.3,0.3c1.3,0,3-0.7,3.6-2.3c0.1-0.1,0-0.3-0.2-0.4c-0.1-0.1-0.3,0-0.4,0.2
						c-0.5,1.3-2,2-3.1,2v0C108.8,125.8,108.7,125.9,108.7,126.1z"/>
				</g>
			</g>
			<g>
				<path class="st1" d="M90.9,169.8L90.9,169.8c-0.8,0-1.3,0.6-1.6,1c-0.1,0.1-0.1,0.3,0.1,0.4c0.1,0,0.1,0.1,0.2,0.1
					c0.1,0,0.2,0,0.2-0.1v0c0.3-0.4,0.6-0.7,1.1-0.7l0,0c0.5,0,0.8,0.3,1.1,0.7c0.1,0.1,0.1,0.1,0.2,0.1c0.1,0,0.1,0,0.2-0.1
					c0.1-0.1,0.1-0.3,0.1-0.4C92.2,170.4,91.8,169.8,90.9,169.8z"/>
			</g>
			<g>
				<path class="st1" d="M36,228c0-0.5,0.1-0.3,0.1-0.7c0.5-3.5,1.5-9.8,1.6-10.7c0.3,0,0.6-0.1,0.8-0.1c0.2,0,0.3-0.2,0.2-0.3
					c0-0.2-0.2-0.3-0.3-0.2c-0.6,0.1-1.4,0.2-2.3,0.2c-2.1,0-4.6-0.4-5.8-1.2c-0.1-0.1-0.3-0.1-0.4,0.1c-0.1,0.1-0.1,0.3,0.1,0.4
					c0.3,0.2,0.7,0.4,1.1,0.6c-0.5,2.8-1.3,10.3-1.6,13.2c0,0.1,0,0.6-0.1,1.1l0.2,0.3c0.2,0.3,0.4,0.5,0.7,0.6
					c0.4,0.3,0.5,0.1,0.9,0.2c0.1,0,0.4,0,0.5,0c0.6,0,0.8,0,1.3-0.3c0.2,0.1,0.7,0,0.9-0.1c0.4-0.2,0.4-0.2,0.7-0.4
					c0.5-0.3,0.3-0.2,0.7-0.7c0.2-0.3,0.4-0.6,0.4-0.9C35.9,228.5,35.9,228.2,36,228z M32.3,229.9c-0.1,0.4-0.8,0.7-1.4,0.6
					c-0.6-0.1-0.9-0.7-0.9-1c0.2-2.5,1.1-10.5,1.6-13.5c0.8,0.2,1.7,0.4,2.6,0.5C33.8,219.4,32.6,226.7,32.3,229.9z M35.5,227.6
					c-0.2,1-0.7,2.2-1.4,2.5c-0.8,0.4-1.2-0.2-1.2-0.4c0.3-3.3,1.4-10.4,1.9-13.1c0.4,0,0.9,0,1.3,0c0.4,0,0.7,0,1,0
					C36.9,217.9,35.9,224.4,35.5,227.6z"/>
			</g>
			<g>
				<path class="st1" d="M146.2,228.9c0.1,0.4,0.3,0.7,0.4,0.9c0.4,0.5,0.2,0.4,0.7,0.7c0.3,0.2,0.3,0.3,0.7,0.4
					c0.2,0.1,0.7,0.1,0.9,0.1c0.5,0.3,0.7,0.3,1.3,0.3c0.1,0,0.4,0,0.5,0c0.4-0.1,0.5,0.1,0.9-0.2c0.2-0.2,0.5-0.3,0.7-0.6l0.2-0.3
					c-0.1-0.4-0.1-1-0.1-1.1c-0.3-2.9-1.1-10.4-1.6-13.2c0.4-0.2,0.8-0.3,1.1-0.6c0.1-0.1,0.2-0.3,0.1-0.4c-0.1-0.1-0.3-0.2-0.4-0.1
					c-1.2,0.9-3.8,1.2-5.8,1.2c-0.9,0-1.7-0.1-2.3-0.2c-0.2,0-0.3,0.1-0.3,0.2c0,0.2,0.1,0.3,0.2,0.3c0.2,0,0.5,0.1,0.8,0.1
					c0.1,0.9,1.2,7.2,1.6,10.7c0,0.4,0.1,0.3,0.1,0.7C146.1,228.4,146.2,228.7,146.2,228.9z M147.8,216.7c0.9-0.1,1.8-0.2,2.6-0.5
					c0.5,3,1.4,11,1.6,13.5c0,0.3-0.3,0.9-0.9,1c-0.6,0.1-1.3-0.2-1.4-0.6C149.4,226.9,148.3,219.5,147.8,216.7z M144.9,216.7
					c0.3,0,0.6,0,1,0c0.4,0,0.9,0,1.3,0c0.5,2.7,1.6,9.8,1.9,13.1c0,0.2-0.4,0.8-1.2,0.4c-0.7-0.3-1.2-1.5-1.4-2.5
					C146.2,224.5,145.1,218,144.9,216.7z"/>
			</g>
		</g>
	</g>
	<g id="TAPAS_SOMACH-S">
	</g>
	<g id="STOMACH-S_1_">
	</g>
	<g id="TAPAS_STOMACH-M">
	</g>
	<g id="STOMACH-M">
	</g>
	<g id="TAPAS_STOMCH-L">
	</g>
	<g id="STOMACH-L">
	</g>
	<g id="TAPAS_STOMACH_XL">
	</g>
	<g id="STOMACH-XL">
	</g>
	<g id="TAPAS_HIPS-XL">
	</g>
	<g id="TAPAS_HIPS_L">
	</g>
	<g id="TAPAS_HIPS_-_M">
	</g>
	<g id="TAPAS_HIPS_-_S">
	</g>
	<g id="TAPAS_HIPS_-_XS">
	</g>
</g>
<g id="SIDE" class="st3">
	<g id="HIPS_M_1_" class="st4">
	</g>
	<g id="HIPS_S_1_" class="st4">
	</g>
	<g id="HIPS_XS_1_" class="st4">
	</g>
	<g id="STOMACH_XS" class="st4">
	</g>
	<g id="STOMACH_S" class="st4">
	</g>
	<g id="STOMACH_M" class="st4">
	</g>
	<g id="STOMACH_L" class="st4">
	</g>
	<g id="STOMACH_XL" class="st4">
	</g>
	<g id="TAPA_CHEST_XL" class="st4">
	</g>
	<g id="CHEST_XL" class="st4">
	</g>
	<g id="TAPA_CHEST_L" class="st4">
	</g>
	<g id="CHEST_L" class="st4">
	</g>
	<g id="TAPA_CHEST_M" class="st4">
	</g>
	<g id="CHEST_M" class="st4">
	</g>
	<g id="CHEST_S" class="st4">
	</g>
	<g id="CHEST_XS" class="st4">
	</g>
</g>
</svg>
