<?xml version="1.0" encoding="utf-8"?>
<!-- Generator: Adobe Illustrator 21.1.0, SVG Export Plug-In . SVG Version: 6.00 Build 0)  -->
<svg version="1.1" xmlns="http://www.w3.org/2000/svg" xmlns:xlink="http://www.w3.org/1999/xlink" x="0px" y="0px"
	 viewBox="0 0 180 420" style="enable-background:new 0 0 180 420;" xml:space="preserve">
<style type="text/css">
	.st0{display:none;}
	.st1{display:inline;}
	.st2{fill:none;stroke:#666666;stroke-width:2;stroke-miterlimit:10;}
	.st3{fill:#666666;}
	.st4{fill:#FFFFFF;}
	.st5{fill:none;stroke:#666666;stroke-width:0.5;stroke-linecap:round;stroke-miterlimit:10;}
	.st6{fill:none;}
</style>
<g id="FRONT" class="st0">
	<g id="HIPS_XL" class="st1">
	</g>
	<g id="HIPS_L" class="st1">
	</g>
	<g id="HIPS_M" class="st1">
	</g>
	<g id="HIPS_S" class="st1">
	</g>
	<g id="HIPS_XS" class="st1">
	</g>
	<g id="STOMACH-XS" class="st1">
	</g>
	<g id="TAPAS_SOMACH-S" class="st1">
	</g>
	<g id="STOMACH-S_1_" class="st1">
	</g>
	<g id="TAPAS_STOMACH-M" class="st1">
	</g>
	<g id="STOMACH-M" class="st1">
	</g>
	<g id="TAPAS_STOMCH-L" class="st1">
	</g>
	<g id="STOMACH-L" class="st1">
	</g>
	<g id="TAPAS_STOMACH_XL" class="st1">
	</g>
	<g id="STOMACH-XL" class="st1">
	</g>
	<g id="TAPAS_HIPS-XL" class="st1">
	</g>
	<g id="TAPAS_HIPS_L" class="st1">
	</g>
	<g id="TAPAS_HIPS_-_M" class="st1">
	</g>
	<g id="TAPAS_HIPS_-_S" class="st1">
	</g>
	<g id="TAPAS_HIPS_-_XS" class="st1">
	</g>
</g>
<g id="SIDE">
	<g id="HIPS_L_4_">
	</g>
	<g id="HIPS_L_3_">
	</g>
	<g id="HIPS_M_1_">
	</g>
	<g id="HIPS_S_1_">
	</g>
	<g id="HIPS_XS_1_">
		<g>
			<path class="st3" d="M89.2,404.7H42c-1.5,0-2.4-0.5-2.6-1.4c-0.5-1.7,2.1-3.6,3.3-4.3c2.2-1.4,4.2-1.3,6.3-1.3
				c1.5,0,3.1,0,4.9-0.4c3.4-0.8,8.1-3.4,14.9-8.2c3.8-2.7,5.1-5.7,5.3-7.1c2.5-17.9-0.6-55.7-6.3-76.4c-0.5-1.1-1.4-2.6-2.3-4.1
				c-2.3-3.9-3.8-6.6-3.8-8.3c-0.1-1.6-0.5-6.8-0.9-11c-0.2-2.2-0.4-4.2-0.4-5.2c-0.1-0.9-0.3-1.6-0.7-3.2
				c-0.7-2.4-1.9-6.3-3.8-15.2c-1.4-6.5-2.8-32-3.3-43.3l2-0.1c0.6,14.3,2,37.1,3.2,42.9c1.9,8.8,3.1,12.7,3.8,15.1
				c0.5,1.6,0.7,2.5,0.8,3.6c0.1,1,0.2,3,0.4,5.2c0.4,4.2,0.8,9.4,0.9,11.1c0.1,1.4,2,4.7,3.6,7.4c0.9,1.6,1.8,3.1,2.4,4.3l0.1,0.2
				c5.8,20.9,9,59.3,6.4,77.3c-0.3,2.1-2.1,5.5-6.1,8.4c-7,4.9-11.9,7.7-15.6,8.5c-2.1,0.5-3.8,0.5-5.4,0.5c-2,0-3.6,0-5.3,1
				c-1.2,0.8-2,1.5-2.3,1.9c0.1,0,0.3,0,0.6,0h47.2c0.7,0,2.1,0,2.1-3.6c0-0.6-1.3-2.8-2.3-4.4c-1.8-3-3.7-6.1-3.7-8.3
				c0-10.4,1.1-28.2,4.3-43.9c1.5-7.3,2.1-16,1.7-23.6c-0.4-7.8-5.7-18.6-10.4-26.1l-0.1-0.1c-1.1-2.6-1.5-6.8-1.7-10.3
				c-0.1-1-0.1-1.9-0.2-2.6l0-0.2l0.1-0.2c3-9.6,4.1-52.2,3.3-61.3l-0.1-0.8l0.8-0.2c2.8-0.9,4.8-2.6,5.9-5c2-4.3,0.8-10.3-0.9-14.5
				c-0.9-2.2-1.7-4-2.5-5.7c-1.6-3.6-3-6.8-4.7-11.8c-2.6-7.8-3-14.5-3-20.6c0-4.4,2.4-9.4,4.9-14.7c1.1-2.3,2.2-4.6,3.2-6.9
				c0.6-1.5,1.3-3.1,2-4.7c2.9-6.6,6.3-14.1,6.3-23.3c0-8.6-3.4-15.9-5.7-20.7c-0.3-0.5-0.5-1-0.7-1.5l1.8-0.8
				c0.2,0.5,0.5,1,0.7,1.5c2.4,5,5.9,12.5,5.9,21.5c0,9.6-3.4,17.3-6.4,24.1c-0.7,1.6-1.4,3.1-2,4.6c-1,2.4-2.1,4.8-3.2,7
				c-2.4,5.1-4.7,9.9-4.7,13.8c0,5.9,0.4,12.5,2.9,20c1.7,5,3.1,8.1,4.7,11.6c0.8,1.8,1.6,3.6,2.5,5.8c0.9,2.2,3.7,10,0.9,16.1
				c-1.2,2.7-3.4,4.6-6.3,5.8c0.7,10.6-0.4,51.3-3.4,61.1c0.1,0.7,0.1,1.6,0.2,2.5c0.2,3.1,0.5,7.3,1.5,9.5
				c2.4,3.8,10.1,16.8,10.7,27c0.4,7.8-0.2,16.7-1.7,24.2c-3.2,15.6-4.3,33.2-4.3,43.5c0,1.7,1.9,4.8,3.4,7.3
				c1.7,2.7,2.6,4.3,2.6,5.5C93.3,403.7,91.1,404.7,89.2,404.7z"/>
			<g>
				<path class="st6" d="M51.9,190.9c0.3-0.8,0.5-1.7,0.8-2.7"/>
			</g>
			<path class="st3" d="M76.7,219.4c-0.1,0-0.3-0.1-0.3-0.3s0.1-0.3,0.3-0.3c2.1,0,6.1-1.9,6.1-2c0.1-0.1,0.3,0,0.3,0.1
				c0.1,0.1,0,0.3-0.1,0.3C83,217.4,78.9,219.4,76.7,219.4z"/>
		</g>
	</g>
	<g id="STOMACH_XS">
	</g>
	<g id="STOMACH_S">
	</g>
	<g id="STOMACH_M">
	</g>
	<g id="STOMACH_L">
	</g>
	<g id="STOMACH_XL">
	</g>
	<g id="TAPA_CHEST_XL">
	</g>
	<g id="CHEST_XL">
	</g>
	<g id="TAPA_CHEST_L">
	</g>
	<g id="CHEST_L">
	</g>
	<g id="TAPA_CHEST_M">
	</g>
	<g id="CHEST_M">
	</g>
	<g id="CHEST_S">
	</g>
	<g id="CHEST_XS">
	</g>
</g>
</svg>
