<?xml version="1.0" encoding="utf-8"?>
<!-- Generator: Adobe Illustrator 21.1.0, SVG Export Plug-In . SVG Version: 6.00 Build 0)  -->
<svg version="1.1" xmlns="http://www.w3.org/2000/svg" xmlns:xlink="http://www.w3.org/1999/xlink" x="0px" y="0px"
	 viewBox="0 0 180 420" style="enable-background:new 0 0 180 420;" xml:space="preserve">
<style type="text/css">
	.st0{display:none;}
	.st1{display:inline;}
	.st2{fill:none;stroke:#666666;stroke-width:2;stroke-miterlimit:10;}
	.st3{fill:#666666;}
	.st4{fill:#FFFFFF;}
	.st5{fill:none;stroke:#666666;stroke-width:0.5;stroke-linecap:round;stroke-miterlimit:10;}
	.st6{fill:none;}
</style>
<g id="FRONT" class="st0">
	<g id="HIPS_XL" class="st1">
	</g>
	<g id="HIPS_L" class="st1">
	</g>
	<g id="HIPS_M" class="st1">
	</g>
	<g id="HIPS_S" class="st1">
	</g>
	<g id="HIPS_XS" class="st1">
	</g>
	<g id="STOMACH-XS" class="st1">
	</g>
	<g id="TAPAS_SOMACH-S" class="st1">
	</g>
	<g id="STOMACH-S_1_" class="st1">
	</g>
	<g id="TAPAS_STOMACH-M" class="st1">
	</g>
	<g id="STOMACH-M" class="st1">
	</g>
	<g id="TAPAS_STOMCH-L" class="st1">
	</g>
	<g id="STOMACH-L" class="st1">
	</g>
	<g id="TAPAS_STOMACH_XL" class="st1">
	</g>
	<g id="STOMACH-XL" class="st1">
	</g>
	<g id="TAPAS_HIPS-XL" class="st1">
	</g>
	<g id="TAPAS_HIPS_L" class="st1">
	</g>
	<g id="TAPAS_HIPS_-_M" class="st1">
	</g>
	<g id="TAPAS_HIPS_-_S" class="st1">
	</g>
	<g id="TAPAS_HIPS_-_XS" class="st1">
	</g>
</g>
<g id="SIDE">
	<g id="HIPS_L_4_">
		<g id="HIPS_XL_2_">
			<path class="st3" d="M89.2,404.7H42c-1.5,0-2.4-0.5-2.6-1.4c-0.5-1.7,2.1-3.6,3.3-4.3c2.2-1.4,4.2-1.3,6.3-1.3
				c1.5,0,3.1,0,4.9-0.4c3.4-0.8,8.1-3.4,14.9-8.2c3.8-2.7,5.1-5.7,5.3-7.1c2.5-17.9-0.6-55.7-6.3-76.4c-0.5-1.1-1.4-2.6-2.3-4.1
				c-2.3-3.9-3.8-6.6-3.8-8.3c-0.1-1.6-0.5-6.8-0.9-11c-0.2-2.2-0.4-4.2-0.4-5.2c-0.1-0.9-0.3-1.6-0.7-3.2
				c-0.7-2.4-1.9-6.3-3.8-15.2c-1.4-6.5-2.8-32-3.3-43.3l2-0.1c0.6,14.3,2,37.1,3.2,42.9c1.9,8.8,3.1,12.7,3.8,15.1
				c0.5,1.6,0.7,2.5,0.8,3.6c0.1,1,0.2,3,0.4,5.2c0.4,4.2,0.8,9.4,0.9,11.1c0.1,1.4,2,4.7,3.6,7.4c0.9,1.6,1.8,3.1,2.4,4.3l0.1,0.2
				c5.8,20.9,9,59.3,6.4,77.3c-0.3,2.1-2.1,5.5-6.1,8.4c-7,4.9-11.9,7.7-15.6,8.5c-2.1,0.5-3.8,0.5-5.4,0.5c-2,0-3.6,0-5.3,1
				c-1.2,0.8-2,1.5-2.3,1.9c0.1,0,0.3,0,0.6,0h47.2c0.7,0,2.1,0,2.1-3.6c0-0.7-1-2.7-1.9-4.5c-1.4-2.8-3-6-3-8.2
				c0-8,2.6-19.8,5.3-32.3c0.8-3.8,1.7-7.7,2.4-11.5c1.8-9.2,2.7-18,2.4-24.3c-0.5-8.6-3.6-18.4-8.1-25.5l-0.1-0.1
				c-1.1-2.6-1.5-6.8-1.7-10.3c-0.1-1-0.1-1.9-0.2-2.6l0-0.2l0.1-0.2c3.1-9.6,9.6-39.2,8.8-48.7l0-0.5l0.4-0.3
				c0.6-0.5,1.4-1,2.3-1.6c5.3-3.7,14.1-9.8,12.6-25.8c-1.3-13.2-10.8-20.5-17.8-25.8c-3.4-2.6-6-4.6-7.1-6.7c-3-5.9-3.5-10-3.5-16
				c0-6.2,0.5-8.3,3.7-16.1c0.6-1.5,1.3-3.1,2-4.7c2.9-6.6,6.3-14.1,6.3-23.3c0-8.6-3.4-15.9-5.7-20.7c-0.3-0.5-0.5-1-0.7-1.5
				l1.8-0.8c0.2,0.5,0.5,1,0.7,1.5c2.4,5,5.9,12.5,5.9,21.5c0,9.6-3.4,17.3-6.4,24.1c-0.7,1.6-1.4,3.1-2,4.6
				c-3.1,7.6-3.5,9.4-3.5,15.4c0,5.7,0.5,9.5,3.3,15.1c0.9,1.7,3.5,3.7,6.5,6.1c7.3,5.5,17.2,13.1,18.5,27.2
				c1.6,17.2-8.2,24-13.5,27.7c-0.7,0.5-1.2,0.9-1.7,1.2c0.6,10.2-5.8,39-8.8,48.8c0.1,0.7,0.1,1.6,0.2,2.5c0.2,3.1,0.5,7.3,1.5,9.5
				c4.6,7.4,7.8,17.4,8.3,26.3c0.4,6.5-0.5,15.5-2.4,24.8c-0.8,3.8-1.6,7.7-2.4,11.5c-2.6,11.9-5.2,24.1-5.2,31.9
				c0,1.7,1.5,4.8,2.8,7.3c1.3,2.6,2.1,4.3,2.1,5.4C93.3,403.7,91.1,404.7,89.2,404.7z"/>
			<path class="st3" d="M95.9,230.2c-0.2,0-0.5-0.2-1.1-0.6c-1.1-0.7-3-1.8-4.4-1.8c-0.1,0-0.3-0.1-0.3-0.3s0.1-0.3,0.3-0.3
				c1.5,0,3.5,1.1,4.6,1.8c0.4,0.2,0.8,0.4,0.9,0.5c0.1,0,0.2,0,0.3,0.1c0.1,0.1,0,0.3-0.1,0.3C96,230.2,95.9,230.2,95.9,230.2z"/>
		</g>
	</g>
	<g id="HIPS_L_3_">
	</g>
	<g id="HIPS_M_1_">
	</g>
	<g id="HIPS_S_1_">
	</g>
	<g id="HIPS_XS_1_">
	</g>
	<g id="STOMACH_XS">
	</g>
	<g id="STOMACH_S">
	</g>
	<g id="STOMACH_M">
	</g>
	<g id="STOMACH_L">
	</g>
	<g id="STOMACH_XL">
	</g>
	<g id="TAPA_CHEST_XL">
	</g>
	<g id="CHEST_XL">
	</g>
	<g id="TAPA_CHEST_L">
	</g>
	<g id="CHEST_L">
	</g>
	<g id="TAPA_CHEST_M">
	</g>
	<g id="CHEST_M">
	</g>
	<g id="CHEST_S">
	</g>
	<g id="CHEST_XS">
	</g>
</g>
</svg>
