<?xml version="1.0" encoding="utf-8"?>
<!-- Generator: Adobe Illustrator 21.1.0, SVG Export Plug-In . SVG Version: 6.00 Build 0)  -->
<svg version="1.1" xmlns="http://www.w3.org/2000/svg" xmlns:xlink="http://www.w3.org/1999/xlink" x="0px" y="0px"
	 viewBox="0 0 180 420" style="enable-background:new 0 0 180 420;" xml:space="preserve">
<style type="text/css">
	.st0{display:none;}
	.st1{display:inline;}
	.st2{fill:none;stroke:#666666;stroke-width:2;stroke-miterlimit:10;}
	.st3{fill:#666666;}
	.st4{display:inline;fill:none;stroke:#666666;stroke-width:2;stroke-miterlimit:10;}
	.st5{display:inline;fill:#666666;}
	.st6{display:inline;fill:#FFFFFF;}
	.st7{fill:#FFFFFF;}
	.st8{fill:none;stroke:#666666;stroke-width:0.5;stroke-linecap:round;stroke-miterlimit:10;}
	.st9{fill:none;}
</style>
<g id="FRONT">
	<g id="HIPS_XL" class="st0">
	</g>
	<g id="HIPS_L" class="st0">
	</g>
	<g id="HIPS_M">
	</g>
	<g id="HIPS_S" class="st0">
	</g>
	<g id="HIPS_XS" class="st0">
	</g>
	<g id="STOMACH-XS" class="st0">
	</g>
	<g id="TAPAS_SOMACH-S" class="st0">
	</g>
	<g id="STOMACH-S_1_" class="st0">
	</g>
	<g id="TAPAS_STOMACH-M">
	</g>
	<g id="STOMACH-M">
	</g>
	<g id="TAPAS_STOMCH-L" class="st0">
	</g>
	<g id="STOMACH-L" class="st0">
	</g>
	<g id="TAPAS_STOMACH_XL" class="st0">
	</g>
	<g id="STOMACH-XL" class="st0">
	</g>
	<g id="TAPAS_HIPS-XL" class="st0">
	</g>
	<g id="TAPAS_HIPS_L" class="st0">
	</g>
	<g id="TAPAS_HIPS_-_M" class="st0">
	</g>
	<g id="TAPAS_HIPS_-_S" class="st0">
	</g>
	<g id="TAPAS_HIPS_-_XS" class="st0">
	</g>
	<g id="TAPA_CHEST_L_1_">
	</g>
	<g id="CHEST_M_ON_S">
	</g>
	<g id="TAPA_CHEST_S">
	</g>
	<g id="CHEST_S_1_">
	</g>
	<g id="TAPAS_XS">
	</g>
	<g id="CHEST_M_1_">
	</g>
	<g id="CHEST_L_1_">
	</g>
	<g id="TAPA_CHEST_XL_1_">
	</g>
	<g id="CHEST_XL_1_">
		<g>
			<g>
				<g>
					<path class="st3" d="M71,135L71,135c-1.3,0-3.1-0.8-3.6-2.3c-0.1-0.2-0.2-0.3-0.4-0.2c-0.2,0.1-0.3,0.2-0.2,0.4
						c0.7,1.9,2.7,2.7,4.2,2.7c0.2,0,0.3-0.1,0.3-0.3C71.3,135.2,71.1,135,71,135z"/>
				</g>
			</g>
			<g>
				<g>
					<path class="st3" d="M111.1,135.4c0,0.2,0.1,0.3,0.3,0.3c1.5,0,3.5-0.8,4.2-2.7c0.1-0.2,0-0.4-0.2-0.4c-0.2-0.1-0.4,0-0.4,0.2
						c-0.5,1.5-2.3,2.3-3.6,2.3v0C111.2,135,111.1,135.2,111.1,135.4z"/>
				</g>
			</g>
			<g>
				<path class="st3" d="M72.9,148.8c-0.8,0.1-1.7,0.1-2.6,0.1c-3.2,0-6.6-0.7-9.4-2.6c-0.3-0.2-1.1-0.9-1.2-1
					c-4.5-4.8-5.7-9.1-5.8-13.1c0-5,2.2-9.3,3.1-12.6c0-0.1,0-0.2,0-0.4c0.1-2.8-1.6-5.7-2.7-7c0.3,1.4,0.5,4.7-0.1,6.9
					c-0.8,2.8-3.1,7.5-3.1,13.1c0,1.8,0.2,3.7,0.9,5.7c0,0.2,0.4,1.2,0.5,1.4c0.3,0.8-0.1-0.1,0.8,2c0.3,0.8,0.3,0.6,0.4,0.8
					c0.2,0.3,0.2,0.4,0.4,0.6c1.2,1.5,4.3,6.6,9.2,7.5c1.5,0.5,3.2,1,4.3,1l0.3-1c-0.1-0.5,0.2-0.2,0-0.5c0.7,0.1-1.1-0.3,2.3-0.3h0
					c0.9,0,1.8-0.1,2.6-0.2c0.2,0,0.3-0.2,0.3-0.4C73.3,148.9,73.1,148.7,72.9,148.8z"/>
				<path class="st3" d="M108.8,148.8c0.8,0.1,1.7,0.1,2.6,0.1c3.2,0,6.6-0.7,9.4-2.6c0.3-0.2,1.1-0.9,1.2-1
					c4.5-4.8,5.7-9.1,5.8-13.1c0-5-2.2-9.3-3.1-12.6c0-0.1,0-0.2,0-0.4c-0.1-2.8,1.6-5.7,2.7-7c-0.3,1.4-0.5,4.7,0.1,6.9
					c0.8,2.8,3.1,7.5,3.1,13.1c0,1.8-0.2,3.7-0.9,5.7c0,0.2-0.4,1.2-0.5,1.4c-0.3,0.8,0.1-0.1-0.8,2c-0.3,0.8-0.3,0.6-0.4,0.8
					c-0.2,0.3-0.2,0.4-0.4,0.6c-1.2,1.5-2.4,3.5-3.7,4.5c-1.2,1-3.5,2.3-4.3,2.6c-2.2,0.9-5.5,1.2-5.5,1.2c-0.2-0.5,0.1-0.8,0.1-1.2
					c-1.6-0.2,0.6-0.3-2.8-0.3h0c-0.9,0-1.8-0.1-2.6-0.2c-0.2,0-0.3-0.2-0.3-0.4C108.4,148.9,108.6,148.7,108.8,148.8z"/>
			</g>
		</g>
	</g>
</g>
<g id="SIDE">
	<g id="HIPS_L_4_" class="st0">
	</g>
	<g id="HIPS_L_3_" class="st0">
	</g>
	<g id="HIPS_M_1_">
	</g>
	<g id="HIPS_S_1_" class="st0">
	</g>
	<g id="HIPS_XS_1_" class="st0">
	</g>
	<g id="STOMACH_XS" class="st0">
	</g>
	<g id="STOMACH_S" class="st0">
	</g>
	<g id="STOMACH_M">
	</g>
	<g id="STOMACH_L" class="st0">
	</g>
	<g id="STOMACH_XL" class="st0">
	</g>
	<g id="TAPA_CHEST_XL" class="st0">
	</g>
	<g id="CHEST_XL" class="st0">
	</g>
	<g id="TAPA_CHEST_L" class="st0">
	</g>
	<g id="CHEST_L" class="st0">
	</g>
	<g id="TAPA_CHEST_M" class="st0">
	</g>
	<g id="CHEST_M" class="st0">
	</g>
	<g id="CHEST_S">
	</g>
	<g id="CHEST_XS" class="st0">
	</g>
</g>
</svg>
