<?xml version="1.0" encoding="utf-8"?>
<!-- Generator: Adobe Illustrator 21.1.0, SVG Export Plug-In . SVG Version: 6.00 Build 0)  -->
<svg version="1.1" xmlns="http://www.w3.org/2000/svg" xmlns:xlink="http://www.w3.org/1999/xlink" x="0px" y="0px"
	 viewBox="0 0 180 420" style="enable-background:new 0 0 180 420;" xml:space="preserve">
<style type="text/css">
	.st0{display:none;}
	.st1{display:inline;}
	.st2{fill:none;stroke:#666666;stroke-width:2;stroke-miterlimit:10;}
	.st3{fill:#666666;}
	.st4{display:inline;fill:none;stroke:#666666;stroke-width:2;stroke-miterlimit:10;}
	.st5{display:inline;fill:#666666;}
	.st6{display:inline;fill:#FFFFFF;}
	.st7{fill:#FFFFFF;}
	.st8{fill:none;stroke:#666666;stroke-width:0.5;stroke-linecap:round;stroke-miterlimit:10;}
	.st9{fill:none;}
</style>
<g id="FRONT">
	<g id="HIPS_XL" class="st0">
	</g>
	<g id="HIPS_L" class="st0">
	</g>
	<g id="HIPS_M">
	</g>
	<g id="HIPS_S" class="st0">
	</g>
	<g id="HIPS_XS" class="st0">
	</g>
	<g id="STOMACH-XS" class="st0">
	</g>
	<g id="TAPAS_SOMACH-S" class="st0">
	</g>
	<g id="STOMACH-S_1_" class="st0">
	</g>
	<g id="TAPAS_STOMACH-M">
	</g>
	<g id="STOMACH-M">
	</g>
	<g id="TAPAS_STOMCH-L" class="st0">
	</g>
	<g id="STOMACH-L" class="st0">
	</g>
	<g id="TAPAS_STOMACH_XL" class="st0">
	</g>
	<g id="STOMACH-XL" class="st0">
	</g>
	<g id="TAPAS_HIPS-XL" class="st0">
	</g>
	<g id="TAPAS_HIPS_L" class="st0">
	</g>
	<g id="TAPAS_HIPS_-_M" class="st0">
	</g>
	<g id="TAPAS_HIPS_-_S" class="st0">
	</g>
	<g id="TAPAS_HIPS_-_XS" class="st0">
	</g>
	<g id="TAPA_CHEST_L_1_">
	</g>
	<g id="CHEST_M_ON_S">
	</g>
	<g id="TAPA_CHEST_S">
	</g>
	<g id="CHEST_S_1_">
	</g>
	<g id="TAPAS_XS">
	</g>
	<g id="CHEST_M_1_">
		<g>
			<g>
				<g>
					<path class="st3" d="M73.3,128.8L73.3,128.8c-1.1,0-2.6-0.7-3.1-2c-0.1-0.1-0.2-0.2-0.4-0.2c-0.1,0.1-0.2,0.2-0.2,0.4
						c0.6,1.6,2.3,2.3,3.6,2.3c0.2,0,0.3-0.1,0.3-0.3C73.6,128.9,73.4,128.8,73.3,128.8z"/>
				</g>
			</g>
			<g>
				<g>
					<path class="st3" d="M108.7,129.1c0,0.2,0.1,0.3,0.3,0.3c1.3,0,3-0.7,3.6-2.3c0.1-0.1,0-0.3-0.2-0.4c-0.1-0.1-0.3,0-0.4,0.2
						c-0.5,1.3-2,2-3.1,2v0C108.8,128.8,108.7,128.9,108.7,129.1z"/>
				</g>
			</g>
			<g>
				<path class="st3" d="M75.2,140.6c-0.7,0.1-1.4,0.1-2.2,0.1c-2.7,0-5.6-0.6-8-2.2c-0.3-0.2-1-0.8-1-0.9
					c-3.8-4.1-4.9-7.8-4.9-11.2c0-4.3,1.9-7.9,2.6-10.8c0-0.1,0-0.2,0-0.4c0.1-2.4-1.3-4.9-2.3-6c0.2,1.2,0.4,4-0.1,5.9
					c-0.6,2.4-2.6,6.4-2.6,11.2c0,1.6,0.2,3.2,0.7,4.9c0,0.2,0.3,1,0.4,1.2c0.2,0.7-0.1-0.1,0.7,1.7c0.3,0.7,0.2,0.5,0.3,0.7
					c0.1,0.3,0.2,0.3,0.3,0.5c1,1.3,3.6,5.2,7.7,5.9c0,0.1,0.1-0.9,0.1-0.7l-0.1-0.2c-0.1-0.4-0.3-0.2-0.4-0.6
					c2.1,1.3,3.4,1.3,6.3,1.3h0c0.8,0,1.5,0,2.3-0.1c0.2,0,0.3-0.2,0.3-0.3C75.5,140.7,75.3,140.6,75.2,140.6z"/>
				<path class="st3" d="M105.9,140.6c0.7,0.1,1.4,0.1,2.2,0.1c2.7,0,5.6-0.6,8-2.2c0.3-0.2,1-0.8,1-0.9c3.8-4.1,4.9-7.8,4.9-11.2
					c0-4.3-1.9-7.9-2.6-10.8c0-0.1,0-0.2,0-0.4c-0.1-2.4,1.3-4.9,2.3-6c-0.2,1.2-0.4,4,0.1,5.9c0.6,2.4,2.6,6.4,2.6,11.2
					c0,1.6-0.2,3.2-0.7,4.9c0,0.2-0.3,1-0.4,1.2c-0.2,0.7,0.1-0.1-0.7,1.7c-0.3,0.7-0.2,0.5-0.3,0.7c-0.1,0.3-0.2,0.3-0.3,0.5
					c-1,1.3-2.1,3-3.1,3.8c-1,0.8-3.6,2.1-3.7,2.3l-0.2-0.8c0.1-0.4,0-0.7,0.1-1.1c-2.6,1.8-4,1.6-6.9,1.6h0c-0.8,0-1.5,0-2.3-0.1
					c-0.2,0-0.3-0.2-0.3-0.3C105.6,140.7,105.7,140.6,105.9,140.6z"/>
			</g>
		</g>
	</g>
	<g id="CHEST_L_1_">
	</g>
	<g id="TAPA_CHEST_XL_1_">
	</g>
	<g id="CHEST_XL_1_">
	</g>
</g>
<g id="SIDE">
	<g id="HIPS_L_4_" class="st0">
	</g>
	<g id="HIPS_L_3_" class="st0">
	</g>
	<g id="HIPS_M_1_">
	</g>
	<g id="HIPS_S_1_" class="st0">
	</g>
	<g id="HIPS_XS_1_" class="st0">
	</g>
	<g id="STOMACH_XS" class="st0">
	</g>
	<g id="STOMACH_S" class="st0">
	</g>
	<g id="STOMACH_M">
	</g>
	<g id="STOMACH_L" class="st0">
	</g>
	<g id="STOMACH_XL" class="st0">
	</g>
	<g id="TAPA_CHEST_XL" class="st0">
	</g>
	<g id="CHEST_XL" class="st0">
	</g>
	<g id="TAPA_CHEST_L" class="st0">
	</g>
	<g id="CHEST_L" class="st0">
	</g>
	<g id="TAPA_CHEST_M" class="st0">
	</g>
	<g id="CHEST_M" class="st0">
	</g>
	<g id="CHEST_S">
	</g>
	<g id="CHEST_XS" class="st0">
	</g>
</g>
</svg>
