<?xml version="1.0" encoding="utf-8"?>
<!-- Generator: Adobe Illustrator 21.1.0, SVG Export Plug-In . SVG Version: 6.00 Build 0)  -->
<svg version="1.1" xmlns="http://www.w3.org/2000/svg" xmlns:xlink="http://www.w3.org/1999/xlink" x="0px" y="0px"
	 viewBox="0 0 180 420" style="enable-background:new 0 0 180 420;" xml:space="preserve">
<style type="text/css">
	.st0{display:none;}
	.st1{display:inline;}
	.st2{fill:none;stroke:#666666;stroke-width:2;stroke-miterlimit:10;}
	.st3{fill:#666666;}
	.st4{display:inline;fill:none;stroke:#666666;stroke-width:2;stroke-miterlimit:10;}
	.st5{display:inline;fill:#666666;}
	.st6{display:inline;fill:#FFFFFF;}
	.st7{fill:#FFFFFF;}
	.st8{fill:none;stroke:#666666;stroke-width:0.5;stroke-linecap:round;stroke-miterlimit:10;}
	.st9{fill:none;}
</style>
<g id="FRONT">
	<g id="HIPS_XL" class="st0">
	</g>
	<g id="HIPS_L" class="st0">
	</g>
	<g id="HIPS_M">
	</g>
	<g id="HIPS_S" class="st0">
	</g>
	<g id="HIPS_XS" class="st0">
	</g>
	<g id="STOMACH-XS" class="st0">
	</g>
	<g id="TAPAS_SOMACH-S" class="st0">
	</g>
	<g id="STOMACH-S_1_" class="st0">
	</g>
	<g id="TAPAS_STOMACH-M">
	</g>
	<g id="STOMACH-M">
	</g>
	<g id="TAPAS_STOMCH-L" class="st0">
	</g>
	<g id="STOMACH-L" class="st0">
	</g>
	<g id="TAPAS_STOMACH_XL" class="st0">
	</g>
	<g id="STOMACH-XL" class="st0">
	</g>
	<g id="TAPAS_HIPS-XL" class="st0">
	</g>
	<g id="TAPAS_HIPS_L" class="st0">
	</g>
	<g id="TAPAS_HIPS_-_M" class="st0">
	</g>
	<g id="TAPAS_HIPS_-_S" class="st0">
	</g>
	<g id="TAPAS_HIPS_-_XS" class="st0">
	</g>
	<g id="TAPA_CHEST_L_1_">
	</g>
	<g id="CHEST_M_ON_S">
	</g>
	<g id="TAPA_CHEST_S">
	</g>
	<g id="CHEST_S_1_">
		<g>
			<g>
				<path class="st3" d="M77.3,134.5c-0.6,0.1-1.3,0.1-2,0.1c-2.5,0-5-0.5-7.2-1.6c-0.3-0.1-0.9-0.6-0.9-0.6
					c-3.5-3.1-4.4-5.9-4.4-8.4c0-3.2,1.7-6,2.3-8.1c0-0.1,0-0.1,0-0.3c0.1-1.8-1.2-3.7-2-4.5c0.2,0.9,0.4,3-0.1,4.5
					c-0.6,1.8-2.4,4.8-2.4,8.4c0,1.2,0.2,2.4,0.7,3.7c0,0.1,0.3,0.8,0.4,0.9c0.2,0.5-0.1-0.1,0.6,1.3c0.2,0.5,0.2,0.4,0.3,0.5
					c0.1,0.2,0.2,0.3,0.3,0.4c0.9,1,1.5,1.7,2.6,2.6c0,0.1,0-0.1,0,0l2.1-0.1c-0.1-0.3,0.1,0.3,0,0c2.3,1.3,5.1,1.9,7.7,1.9h0
					c0.7,0,1.4,0,2-0.1c0.2,0,0.3-0.1,0.2-0.3C77.6,134.5,77.5,134.4,77.3,134.5z"/>
				<g>
					<path class="st3" d="M73.3,127L73.3,127c-1.1,0-2.6-0.5-3.1-1.6c-0.1-0.1-0.2-0.2-0.4-0.1c-0.1,0-0.2,0.2-0.2,0.3
						c0.6,1.4,2.3,1.9,3.6,2c0.2,0,0.3-0.1,0.3-0.2C73.6,127.1,73.4,127,73.3,127z"/>
				</g>
			</g>
			<g>
				<path class="st3" d="M104.9,134.5c0.6,0.1,1.3,0.1,2,0.1c2.5,0,5-0.5,7.2-1.6c0.3-0.1,0.9-0.6,0.9-0.6c3.5-3.1,4.4-5.9,4.4-8.4
					c0-3.2-1.7-6-2.3-8.1c0-0.1,0-0.1,0-0.3c-0.1-1.8,1.2-3.7,2-4.5c-0.2,0.9-0.4,3,0.1,4.5c0.6,1.8,2.4,4.8,2.4,8.4
					c0,1.2-0.2,2.4-0.7,3.7c0,0.1-0.3,0.8-0.4,0.9c-0.2,0.5,0.1-0.1-0.6,1.3c-0.2,0.5-0.2,0.4-0.3,0.5c-0.1,0.2-0.2,0.3-0.3,0.4
					c-0.9,1-1.5,1.7-2.6,2.6c0,0.1,0-0.1,0,0l-2.1-0.1c0.1-0.3-0.1,0.3,0,0c-2.3,1.3-5.1,1.9-7.7,1.9h0c-0.7,0-1.4,0-2-0.1
					c-0.2,0-0.3-0.1-0.2-0.3C104.6,134.5,104.8,134.4,104.9,134.5z"/>
				<g>
					<path class="st3" d="M108.7,127.2c0,0.1,0.1,0.2,0.3,0.2c1.3,0,3-0.6,3.6-2c0.1-0.1,0-0.3-0.2-0.3c-0.1,0-0.3,0-0.4,0.1
						c-0.5,1.1-2,1.6-3.1,1.6v0C108.8,127,108.7,127.1,108.7,127.2z"/>
				</g>
			</g>
		</g>
	</g>
	<g id="TAPAS_XS">
	</g>
	<g id="CHEST_M_1_">
	</g>
	<g id="CHEST_L_1_">
	</g>
	<g id="TAPA_CHEST_XL_1_">
	</g>
	<g id="CHEST_XL_1_">
	</g>
</g>
<g id="SIDE">
	<g id="HIPS_L_4_" class="st0">
	</g>
	<g id="HIPS_L_3_" class="st0">
	</g>
	<g id="HIPS_M_1_">
	</g>
	<g id="HIPS_S_1_" class="st0">
	</g>
	<g id="HIPS_XS_1_" class="st0">
	</g>
	<g id="STOMACH_XS" class="st0">
	</g>
	<g id="STOMACH_S" class="st0">
	</g>
	<g id="STOMACH_M">
	</g>
	<g id="STOMACH_L" class="st0">
	</g>
	<g id="STOMACH_XL" class="st0">
	</g>
	<g id="TAPA_CHEST_XL" class="st0">
	</g>
	<g id="CHEST_XL" class="st0">
	</g>
	<g id="TAPA_CHEST_L" class="st0">
	</g>
	<g id="CHEST_L" class="st0">
	</g>
	<g id="TAPA_CHEST_M" class="st0">
	</g>
	<g id="CHEST_M" class="st0">
	</g>
	<g id="CHEST_S">
	</g>
	<g id="CHEST_XS" class="st0">
	</g>
</g>
</svg>
