<?xml version="1.0" encoding="utf-8"?>
<!-- Generator: Adobe Illustrator 21.1.0, SVG Export Plug-In . SVG Version: 6.00 Build 0)  -->
<svg version="1.1" xmlns="http://www.w3.org/2000/svg" xmlns:xlink="http://www.w3.org/1999/xlink" x="0px" y="0px"
	 viewBox="0 0 180 420" style="enable-background:new 0 0 180 420;" xml:space="preserve">
<style type="text/css">
	.st0{display:none;}
	.st1{display:inline;}
	.st2{fill:none;stroke:#666666;stroke-width:2;stroke-miterlimit:10;}
	.st3{fill:#666666;}
	.st4{fill:#FFFFFF;}
	.st5{fill:none;stroke:#666666;stroke-width:0.5;stroke-linecap:round;stroke-miterlimit:10;}
	.st6{fill:none;}
</style>
<g id="FRONT" class="st0">
	<g id="HIPS_XL" class="st1">
	</g>
	<g id="HIPS_L" class="st1">
	</g>
	<g id="HIPS_M" class="st1">
	</g>
	<g id="HIPS_S" class="st1">
	</g>
	<g id="HIPS_XS" class="st1">
	</g>
	<g id="STOMACH-XS" class="st1">
	</g>
	<g id="TAPAS_SOMACH-S" class="st1">
	</g>
	<g id="STOMACH-S_1_" class="st1">
	</g>
	<g id="TAPAS_STOMACH-M" class="st1">
	</g>
	<g id="STOMACH-M" class="st1">
	</g>
	<g id="TAPAS_STOMCH-L" class="st1">
	</g>
	<g id="STOMACH-L" class="st1">
	</g>
	<g id="TAPAS_STOMACH_XL" class="st1">
	</g>
	<g id="STOMACH-XL" class="st1">
	</g>
	<g id="TAPAS_HIPS-XL" class="st1">
	</g>
	<g id="TAPAS_HIPS_L" class="st1">
	</g>
	<g id="TAPAS_HIPS_-_M" class="st1">
	</g>
	<g id="TAPAS_HIPS_-_S" class="st1">
	</g>
	<g id="TAPAS_HIPS_-_XS" class="st1">
	</g>
</g>
<g id="SIDE">
	<g id="HIPS_L_4_">
	</g>
	<g id="HIPS_L_3_">
	</g>
	<g id="HIPS_M_1_">
	</g>
	<g id="HIPS_S_1_">
	</g>
	<g id="HIPS_XS_1_">
	</g>
	<g id="STOMACH_XS">
	</g>
	<g id="STOMACH_S">
	</g>
	<g id="STOMACH_M">
	</g>
	<g id="STOMACH_L">
		<g>
			<path class="st3" d="M38.4,233.9c-0.4,0-0.7-0.1-1-0.4c-0.6-0.5-1.2-1.6-1.2-2.6c-0.2-0.2-0.4-0.5-0.5-0.7
				c-0.3-0.7-0.3-1.4,0-2.2c0.6-1.4,3.8-5.8,5.4-7.6c0.2-0.5,0.5-1.5,0.8-2.4c0.3-1.2,0.7-2.5,1.1-3.6c-0.3,0.4-0.5,0.7-0.8,1.1
				c-0.9,1.3-1.9,2.6-2.4,3.2c-0.8,1-2.6,1.4-3.6,0.8c-0.6-0.4-1-1.1-0.5-2.1c0.6-1.2,5.6-11.6,8.1-13.7c1.5-1.3,4.2-3.7,5.1-4.8
				c-5.1-2.9-7.2-11-6.7-17.8c0.2-2.8,1.8-9.3,3.4-15.6c1-4.1,2-7.9,2.5-10.6c0.4-2,0.3-4.4,0.1-7.3c-0.2-3.1-0.4-6.5,0.1-10.2
				l2,0.2c-0.4,3.5-0.2,6.8-0.1,9.8c0.2,3,0.3,5.6-0.1,7.8c-0.5,2.7-1.5,6.5-2.5,10.6c-1.5,6.2-3.1,12.7-3.3,15.3
				c-0.5,5.9,1.3,13.1,5.4,15.7l2.5-6.2l1.9,0.6c-0.5,2-2.5,7-3,8c-0.7,1.4-5.2,5.3-5.9,5.8c-1.6,1.3-5.1,7.9-7.2,12.4
				c0.2-0.1,0.4-0.1,0.5-0.3c0.5-0.6,1.4-1.9,2.4-3.1c1-1.4,2-2.7,2.4-3.2l0.7-0.9l0.8,0.8c0.7,0.7,1,2.6,0.5,3.8
				c-0.5,1.1-0.8,2.4-1.2,3.6c-0.3,1.2-0.6,2.2-0.9,2.9l-0.1,0.2c-1.6,1.8-4.7,6.2-5.1,7.2c-0.2,0.4,0,0.7,0.1,0.7l1.1,0.4l-0.5,1
				c0,0.1,0.1,0.5,0.2,0.7c1.3-1.7,3.4-4.3,5.1-6.1c0.5-0.5,0.6-0.6,1.6-1.3l0.8-0.6c0.3-0.4,0.6-0.7,1-1.2c0.5-0.5,1-1.1,1.9-2.1
				c0.5-0.6,1-1,1.4-1.4c0.7-0.7,1.2-1.1,1.8-2.5c0.2-0.4,1.9-5.7,2.2-6.7l1.9,0.6c0,0.1-2.1,6.4-2.3,6.9c-0.8,1.7-1.5,2.4-2.3,3.1
				c-0.4,0.3-0.8,0.7-1.2,1.2c-0.9,1.1-1.5,1.7-2,2.2c-0.4,0.4-0.7,0.7-1,1.1l-0.2,0.2l-0.9,0.7c-0.9,0.7-1,0.8-1.4,1.1
				c-1.9,1.9-4.2,4.8-5.4,6.4l-0.2,0.2C39.1,233.7,38.7,233.9,38.4,233.9z"/>
			<g>
				<path class="st6" d="M54.5,209.9c0.1-0.4,0.3-0.8,0.4-1.2c0,0,0,0,0,0c0.5-1.6,1.1-3.9,1.6-6.2c0.8-3.2,1.6-6.3,2.4-8.2
					c4.6-9.9,10.8-23.4,13.3-28.4c1-2.2,1.8-5.2,2.3-7.7c0.5-2.6,0.8-4.7,1-5.5c0-0.1,0.1-0.2,0.1-0.2c-0.7,0.6-1.5,1-2.1,1.2h0
					c0,0-0.1,0-0.1,0c-0.1,0-0.2-0.1-0.3-0.2c-0.1-0.1,0-0.3,0.2-0.4c0.8-0.3,2.1-1.2,2.9-2.1c0.1-0.2,0.2-0.3,0.3-0.5
					c0.4-0.5,0.6-0.9,0.6-1.2c0.3-2.6,2.2-10.1,5.6-18c4.4-10.3,7.5-18,8.2-25.5c0.2-2.6,0.2-4.4-0.2-6.1c1.3,1.4,2.3,3.5,2.2,6.2
					c-0.3,6.9-3.8,16-8.2,26.3c-3.3,7.7-5.2,15.2-5.4,17.4c-0.1,1-0.6,1.6-0.9,2.2c-0.4,0.5-0.6,0.9-0.7,1.4c-0.1,0.5-0.4,2.8-1,5.5
					c-0.5,2.7-1.3,5.7-2.5,8.2c-2.4,5.1-8.7,18.6-13.3,28.4c-0.7,1.5-1.5,4.7-2.3,7.9c-0.6,2.2-1.1,4.4-1.6,6.2"/>
				<path class="st6" d="M54.1,181.4c0.3-1.3,0.5-2.7,0.8-4.1c1.2-6.4,2.3-13,3.4-16.4c1.8-5.6,3.9-8.2,4.8-9.9
					c0.2-4,0.8-7.5,1.5-13.4c1-8.2,4.6-18,4.6-23.7c0-1.1-0.1-2-0.4-2.7c-0.2-0.6-0.7-0.7-1.2-0.7c0.3-0.4,1.1-0.9,1.8-0.9
					c0.3,0,0.9,0.1,1.3,0.9c0.4,0.8,0.5,2.2,0.5,3.4c0,6.4-3.7,16.1-4.6,24c-0.7,6.1-1.3,9.6-1.5,13.5c0,0.1,0,0.3-0.1,0.4
					c-1,2.2-2.9,4.2-4.7,9.8c-1,3.2-2.2,9.8-3.4,16.2c-1.2,6.4-2.4,12.6-3.8,15.6c-0.2,0.4-0.5,0.7-0.8,1.1"/>
				<path class="st6" d="M51.9,190.9c0.3-0.8,0.5-1.7,0.8-2.7"/>
				<path class="st3" d="M54.5,215.2c0.6-1.8,3.4-10.3,4-12.5c0.8-3.1,1.6-6.3,2.3-7.9c4.6-9.8,10.8-23.4,13.3-28.4
					c1.2-2.5,2-5.6,2.5-8.2c0.5-2.6,0.8-4.9,1-5.5c0.1-0.4,0.4-0.8,0.7-1.4c0.4-0.5,0.8-1.2,0.9-2.2c0.2-2.2,2.1-9.7,5.4-17.4
					c4.4-10.3,8-19.5,8.2-26.3c0.1-2.7-0.9-4.8-2.2-6.2c0.4,1.7,0.4,3.6,0.2,6.1c-0.6,7.5-3.7,15.3-8.2,25.5
					c-3.4,7.9-5.3,15.4-5.6,18c0,0.3-0.2,0.7-0.6,1.2c-0.1,0.1-0.2,0.3-0.3,0.5c-0.8,0.9-2.1,1.8-2.9,2.1c-0.1,0.1-0.2,0.2-0.2,0.4
					c0,0.1,0.1,0.2,0.3,0.2c0,0,0.1,0,0.1,0h0c0.6-0.2,1.4-0.7,2.1-1.2c0,0.1-0.1,0.1-0.1,0.2c-0.2,0.8-0.4,2.9-1,5.5
					c-0.5,2.6-1.3,5.5-2.3,7.7c-2.4,5.1-8.7,18.6-13.3,28.4c-0.9,1.9-1.6,5.1-2.4,8.2c-0.6,2.3-1.1,4.6-1.6,6.2c0,0,0,0,0,0
					c-0.2,0.5-0.4,1.1-0.6,1.4L54.5,215.2z"/>
				<path class="st3" d="M52.7,188.2c-0.3,1-0.5,1.9-0.8,2.7l0.3,3.7c0.4-0.4,0.8-0.9,1-1.3c1.4-3,2.6-9.2,3.8-15.6
					c1.2-6.4,2.3-13,3.4-16.2c1.8-5.6,3.7-7.6,4.7-9.8c0.1-0.1,0.1-0.3,0.1-0.4c0.2-3.9,0.8-7.4,1.5-13.5c0.9-7.8,4.5-17.6,4.6-24
					c0-1.2-0.1-2.6-0.5-3.4c-0.4-0.8-1-0.9-1.3-0.9c-0.8,0-1.6,0.5-1.8,0.9c0.5,0,0.9,0.1,1.2,0.7c0.3,0.7,0.4,1.6,0.4,2.7
					c0,5.7-3.6,15.6-4.6,23.7c-0.7,5.9-1.3,9.4-1.5,13.4c-0.8,1.7-2.9,4.3-4.8,9.9c-1.1,3.5-2.2,10-3.4,16.4
					c-0.3,1.4-0.5,2.7-0.8,4.1L52.7,188.2z"/>
			</g>
			<path class="st3" d="M38,230.6c-0.1,0-0.1,0-0.2-0.1c-0.1-0.1-0.1-0.3,0-0.4l6.9-6.6l2.6-6.2l1.1-1.1c0.1-0.1,0.3-0.1,0.4,0
				c0.1,0.1,0.1,0.3,0,0.4l-1,1l-2.6,6.2l-7,6.6C38.1,230.6,38.1,230.6,38,230.6z"/>
			<path class="st3" d="M39.3,231.7c-0.1,0-0.1,0-0.2-0.1c-0.1-0.1-0.1-0.3,0-0.4l6.9-6.6l2.6-6.2l1.1-1.1c0.1-0.1,0.3-0.1,0.4,0
				s0.1,0.3,0,0.4l-1,1l-2.6,6.2l-7,6.6C39.5,231.7,39.4,231.7,39.3,231.7z"/>
		</g>
	</g>
	<g id="STOMACH_XL">
	</g>
	<g id="TAPA_CHEST_XL">
	</g>
	<g id="CHEST_XL">
	</g>
	<g id="TAPA_CHEST_L">
	</g>
	<g id="CHEST_L">
	</g>
	<g id="TAPA_CHEST_M">
	</g>
	<g id="CHEST_M">
	</g>
	<g id="CHEST_S">
	</g>
	<g id="CHEST_XS">
	</g>
</g>
</svg>
